<mxfile host="app.diagrams.net" modified="2024-01-29T03:58:04.936Z" agent="Mozilla/5.0 (Macintosh; Intel Mac OS X 10_15_7) AppleWebKit/537.36 (KHTML, like Gecko) Chrome/121.0.0.0 Safari/537.36" etag="KGF4r6irr3xrveUqrWaY" version="23.0.2" type="github">
  <diagram name="第 1 页" id="-MFmQp2PW4KRZaA67KiN">
    <mxGraphModel dx="2876" dy="2292" grid="1" gridSize="10" guides="1" tooltips="1" connect="1" arrows="1" fold="1" page="1" pageScale="1" pageWidth="827" pageHeight="1169" math="0" shadow="0">
      <root>
        <mxCell id="0" />
        <mxCell id="1" parent="0" />
        <mxCell id="eDhHdD21VxhMocc9II1k-335" value="" style="rounded=0;whiteSpace=wrap;html=1;fontFamily=Georgia;fontSize=22;dashed=1;" parent="1" vertex="1">
          <mxGeometry x="753.96" y="560.83" width="230" height="169.17" as="geometry" />
        </mxCell>
        <mxCell id="eDhHdD21VxhMocc9II1k-337" style="edgeStyle=orthogonalEdgeStyle;rounded=0;orthogonalLoop=1;jettySize=auto;html=1;entryX=0.75;entryY=1;entryDx=0;entryDy=0;jumpStyle=arc;" parent="1" target="eDhHdD21VxhMocc9II1k-332" edge="1">
          <mxGeometry relative="1" as="geometry">
            <mxPoint x="1150" y="430" as="sourcePoint" />
            <Array as="points">
              <mxPoint x="1110" y="430" />
              <mxPoint x="1110" y="540" />
              <mxPoint x="737" y="540" />
            </Array>
          </mxGeometry>
        </mxCell>
        <mxCell id="eDhHdD21VxhMocc9II1k-338" style="edgeStyle=orthogonalEdgeStyle;rounded=0;orthogonalLoop=1;jettySize=auto;html=1;exitX=0.75;exitY=0;exitDx=0;exitDy=0;entryX=0.237;entryY=1.047;entryDx=0;entryDy=0;entryPerimeter=0;" parent="1" source="eDhHdD21VxhMocc9II1k-333" target="eDhHdD21VxhMocc9II1k-332" edge="1">
          <mxGeometry relative="1" as="geometry" />
        </mxCell>
        <mxCell id="eDhHdD21VxhMocc9II1k-333" value="" style="rounded=0;whiteSpace=wrap;html=1;fontFamily=Georgia;fontSize=22;dashed=1;" parent="1" vertex="1">
          <mxGeometry x="480" y="560.83" width="230" height="169.17" as="geometry" />
        </mxCell>
        <mxCell id="eDhHdD21VxhMocc9II1k-95" value="" style="rounded=0;whiteSpace=wrap;html=1;fontFamily=Georgia;fontSize=22;dashed=1;" parent="1" vertex="1">
          <mxGeometry x="35.45000000000002" y="392.27" width="240" height="133.32" as="geometry" />
        </mxCell>
        <mxCell id="eDhHdD21VxhMocc9II1k-321" value="" style="rounded=1;whiteSpace=wrap;html=1;" parent="1" vertex="1">
          <mxGeometry x="-9.999999999999972" y="202.27" width="405.45" height="160" as="geometry" />
        </mxCell>
        <mxCell id="IR68_CzAtFla6GQySJcf-41" value="All Features Embedding" style="rounded=0;whiteSpace=wrap;html=1;" parent="1" vertex="1">
          <mxGeometry x="480" y="300" width="890" height="20" as="geometry" />
        </mxCell>
        <mxCell id="IR68_CzAtFla6GQySJcf-42" value="" style="group" parent="1" vertex="1" connectable="0">
          <mxGeometry x="1241" y="320" width="135" height="200" as="geometry" />
        </mxCell>
        <mxCell id="IR68_CzAtFla6GQySJcf-43" value="" style="group" parent="IR68_CzAtFla6GQySJcf-42" vertex="1" connectable="0">
          <mxGeometry x="5" width="50" height="165" as="geometry" />
        </mxCell>
        <mxCell id="IR68_CzAtFla6GQySJcf-44" value="" style="group" parent="IR68_CzAtFla6GQySJcf-43" vertex="1" connectable="0">
          <mxGeometry y="25" width="50" height="65" as="geometry" />
        </mxCell>
        <mxCell id="IR68_CzAtFla6GQySJcf-45" value="" style="group" parent="IR68_CzAtFla6GQySJcf-44" vertex="1" connectable="0">
          <mxGeometry x="5" width="40" height="10" as="geometry" />
        </mxCell>
        <mxCell id="IR68_CzAtFla6GQySJcf-46" value="" style="rounded=0;whiteSpace=wrap;html=1;fontSize=22;" parent="IR68_CzAtFla6GQySJcf-45" vertex="1">
          <mxGeometry width="10" height="10" as="geometry" />
        </mxCell>
        <mxCell id="IR68_CzAtFla6GQySJcf-47" style="edgeStyle=none;rounded=0;orthogonalLoop=1;jettySize=auto;html=1;exitX=1;exitY=1;exitDx=0;exitDy=0;fontSize=22;" parent="IR68_CzAtFla6GQySJcf-45" source="IR68_CzAtFla6GQySJcf-46" target="IR68_CzAtFla6GQySJcf-46" edge="1">
          <mxGeometry relative="1" as="geometry" />
        </mxCell>
        <mxCell id="IR68_CzAtFla6GQySJcf-48" value="" style="rounded=0;whiteSpace=wrap;html=1;fontSize=22;" parent="IR68_CzAtFla6GQySJcf-45" vertex="1">
          <mxGeometry x="10" width="10" height="10" as="geometry" />
        </mxCell>
        <mxCell id="IR68_CzAtFla6GQySJcf-49" value="" style="rounded=0;whiteSpace=wrap;html=1;fontSize=22;" parent="IR68_CzAtFla6GQySJcf-45" vertex="1">
          <mxGeometry x="20" width="10" height="10" as="geometry" />
        </mxCell>
        <mxCell id="IR68_CzAtFla6GQySJcf-50" value="" style="rounded=0;whiteSpace=wrap;html=1;fontSize=22;" parent="IR68_CzAtFla6GQySJcf-45" vertex="1">
          <mxGeometry x="30" width="10" height="10" as="geometry" />
        </mxCell>
        <mxCell id="IR68_CzAtFla6GQySJcf-51" value="" style="shape=curlyBracket;whiteSpace=wrap;html=1;rounded=1;flipH=1;fontSize=22;rotation=-90;size=0.5;" parent="IR68_CzAtFla6GQySJcf-44" vertex="1">
          <mxGeometry x="15" y="30" width="20" height="50" as="geometry" />
        </mxCell>
        <mxCell id="IR68_CzAtFla6GQySJcf-52" value="&lt;font style=&quot;font-size: 11px;&quot;&gt;concat&lt;/font&gt;" style="rounded=1;whiteSpace=wrap;html=1;fontSize=11;" parent="IR68_CzAtFla6GQySJcf-44" vertex="1">
          <mxGeometry x="2.5" y="20" width="45" height="20" as="geometry" />
        </mxCell>
        <mxCell id="IR68_CzAtFla6GQySJcf-53" value="" style="rounded=0;whiteSpace=wrap;html=1;fontSize=22;" parent="IR68_CzAtFla6GQySJcf-43" vertex="1">
          <mxGeometry x="10" y="90" width="10" height="10" as="geometry" />
        </mxCell>
        <mxCell id="IR68_CzAtFla6GQySJcf-54" value="" style="rounded=0;whiteSpace=wrap;html=1;fontSize=22;" parent="IR68_CzAtFla6GQySJcf-43" vertex="1">
          <mxGeometry x="10" y="100" width="10" height="10" as="geometry" />
        </mxCell>
        <mxCell id="IR68_CzAtFla6GQySJcf-55" value="" style="rounded=0;whiteSpace=wrap;html=1;fontSize=22;" parent="IR68_CzAtFla6GQySJcf-43" vertex="1">
          <mxGeometry x="10" y="110" width="10" height="10" as="geometry" />
        </mxCell>
        <mxCell id="IR68_CzAtFla6GQySJcf-56" value="" style="rounded=0;whiteSpace=wrap;html=1;fontSize=22;" parent="IR68_CzAtFla6GQySJcf-43" vertex="1">
          <mxGeometry x="10" y="120" width="10" height="10" as="geometry" />
        </mxCell>
        <mxCell id="IR68_CzAtFla6GQySJcf-57" value="" style="rounded=0;whiteSpace=wrap;html=1;fontSize=22;" parent="IR68_CzAtFla6GQySJcf-43" vertex="1">
          <mxGeometry x="30" y="90" width="10" height="10" as="geometry" />
        </mxCell>
        <mxCell id="IR68_CzAtFla6GQySJcf-58" value="" style="rounded=0;whiteSpace=wrap;html=1;fontSize=22;" parent="IR68_CzAtFla6GQySJcf-43" vertex="1">
          <mxGeometry x="30" y="100" width="10" height="10" as="geometry" />
        </mxCell>
        <mxCell id="IR68_CzAtFla6GQySJcf-59" value="" style="rounded=0;whiteSpace=wrap;html=1;fontSize=22;" parent="IR68_CzAtFla6GQySJcf-43" vertex="1">
          <mxGeometry x="30" y="110" width="10" height="15" as="geometry" />
        </mxCell>
        <mxCell id="IR68_CzAtFla6GQySJcf-60" value="" style="rounded=0;whiteSpace=wrap;html=1;fontSize=22;" parent="IR68_CzAtFla6GQySJcf-43" vertex="1">
          <mxGeometry x="30" y="120" width="10" height="10" as="geometry" />
        </mxCell>
        <mxCell id="IR68_CzAtFla6GQySJcf-61" value="" style="ellipse;whiteSpace=wrap;html=1;aspect=fixed;fontSize=11;" parent="IR68_CzAtFla6GQySJcf-43" vertex="1">
          <mxGeometry x="10" y="155" width="10" height="10" as="geometry" />
        </mxCell>
        <mxCell id="IR68_CzAtFla6GQySJcf-62" value="" style="ellipse;whiteSpace=wrap;html=1;aspect=fixed;fontSize=11;" parent="IR68_CzAtFla6GQySJcf-43" vertex="1">
          <mxGeometry x="30" y="155" width="10" height="10" as="geometry" />
        </mxCell>
        <mxCell id="IR68_CzAtFla6GQySJcf-63" value="" style="endArrow=classic;html=1;rounded=0;fontSize=11;exitX=0.5;exitY=0;exitDx=0;exitDy=0;entryX=0.5;entryY=1;entryDx=0;entryDy=0;" parent="IR68_CzAtFla6GQySJcf-43" source="IR68_CzAtFla6GQySJcf-61" target="IR68_CzAtFla6GQySJcf-56" edge="1">
          <mxGeometry width="50" height="50" relative="1" as="geometry">
            <mxPoint x="-20" y="65" as="sourcePoint" />
            <mxPoint x="30" y="15" as="targetPoint" />
          </mxGeometry>
        </mxCell>
        <mxCell id="IR68_CzAtFla6GQySJcf-64" value="" style="endArrow=classic;html=1;rounded=0;fontSize=11;exitX=0.5;exitY=0;exitDx=0;exitDy=0;entryX=0.5;entryY=1;entryDx=0;entryDy=0;" parent="IR68_CzAtFla6GQySJcf-43" source="IR68_CzAtFla6GQySJcf-62" target="IR68_CzAtFla6GQySJcf-60" edge="1">
          <mxGeometry width="50" height="50" relative="1" as="geometry">
            <mxPoint x="34.81999999999999" y="155" as="sourcePoint" />
            <mxPoint x="34.81999999999999" y="130" as="targetPoint" />
          </mxGeometry>
        </mxCell>
        <mxCell id="IR68_CzAtFla6GQySJcf-65" value="" style="endArrow=classic;html=1;rounded=0;fontSize=11;exitX=0.5;exitY=0;exitDx=0;exitDy=0;entryX=0.5;entryY=1;entryDx=0;entryDy=0;" parent="IR68_CzAtFla6GQySJcf-43" edge="1">
          <mxGeometry width="50" height="50" relative="1" as="geometry">
            <mxPoint x="24.84999999999991" y="25" as="sourcePoint" />
            <mxPoint x="24.84999999999991" as="targetPoint" />
          </mxGeometry>
        </mxCell>
        <mxCell id="IR68_CzAtFla6GQySJcf-66" value="" style="group" parent="IR68_CzAtFla6GQySJcf-42" vertex="1" connectable="0">
          <mxGeometry x="75" width="50" height="165" as="geometry" />
        </mxCell>
        <mxCell id="IR68_CzAtFla6GQySJcf-67" value="" style="group" parent="IR68_CzAtFla6GQySJcf-66" vertex="1" connectable="0">
          <mxGeometry y="25" width="50" height="65" as="geometry" />
        </mxCell>
        <mxCell id="IR68_CzAtFla6GQySJcf-68" value="" style="group" parent="IR68_CzAtFla6GQySJcf-67" vertex="1" connectable="0">
          <mxGeometry x="5" width="40" height="10" as="geometry" />
        </mxCell>
        <mxCell id="IR68_CzAtFla6GQySJcf-69" value="" style="rounded=0;whiteSpace=wrap;html=1;fontSize=22;" parent="IR68_CzAtFla6GQySJcf-68" vertex="1">
          <mxGeometry width="10" height="10" as="geometry" />
        </mxCell>
        <mxCell id="IR68_CzAtFla6GQySJcf-70" style="edgeStyle=none;rounded=0;orthogonalLoop=1;jettySize=auto;html=1;exitX=1;exitY=1;exitDx=0;exitDy=0;fontSize=22;" parent="IR68_CzAtFla6GQySJcf-68" source="IR68_CzAtFla6GQySJcf-69" target="IR68_CzAtFla6GQySJcf-69" edge="1">
          <mxGeometry relative="1" as="geometry" />
        </mxCell>
        <mxCell id="IR68_CzAtFla6GQySJcf-71" value="" style="rounded=0;whiteSpace=wrap;html=1;fontSize=22;" parent="IR68_CzAtFla6GQySJcf-68" vertex="1">
          <mxGeometry x="10" width="10" height="10" as="geometry" />
        </mxCell>
        <mxCell id="IR68_CzAtFla6GQySJcf-72" value="" style="rounded=0;whiteSpace=wrap;html=1;fontSize=22;" parent="IR68_CzAtFla6GQySJcf-68" vertex="1">
          <mxGeometry x="20" width="10" height="10" as="geometry" />
        </mxCell>
        <mxCell id="IR68_CzAtFla6GQySJcf-73" value="" style="rounded=0;whiteSpace=wrap;html=1;fontSize=22;" parent="IR68_CzAtFla6GQySJcf-68" vertex="1">
          <mxGeometry x="30" width="10" height="10" as="geometry" />
        </mxCell>
        <mxCell id="IR68_CzAtFla6GQySJcf-74" value="" style="shape=curlyBracket;whiteSpace=wrap;html=1;rounded=1;flipH=1;fontSize=22;rotation=-90;size=0.5;" parent="IR68_CzAtFla6GQySJcf-67" vertex="1">
          <mxGeometry x="15" y="30" width="20" height="50" as="geometry" />
        </mxCell>
        <mxCell id="IR68_CzAtFla6GQySJcf-75" value="&lt;font style=&quot;font-size: 11px;&quot;&gt;concat&lt;/font&gt;" style="rounded=1;whiteSpace=wrap;html=1;fontSize=11;" parent="IR68_CzAtFla6GQySJcf-67" vertex="1">
          <mxGeometry x="2.5" y="20" width="45" height="20" as="geometry" />
        </mxCell>
        <mxCell id="IR68_CzAtFla6GQySJcf-76" value="" style="rounded=0;whiteSpace=wrap;html=1;fontSize=22;" parent="IR68_CzAtFla6GQySJcf-66" vertex="1">
          <mxGeometry x="10" y="90" width="10" height="10" as="geometry" />
        </mxCell>
        <mxCell id="IR68_CzAtFla6GQySJcf-77" value="" style="rounded=0;whiteSpace=wrap;html=1;fontSize=22;" parent="IR68_CzAtFla6GQySJcf-66" vertex="1">
          <mxGeometry x="10" y="100" width="10" height="10" as="geometry" />
        </mxCell>
        <mxCell id="IR68_CzAtFla6GQySJcf-78" value="" style="rounded=0;whiteSpace=wrap;html=1;fontSize=22;" parent="IR68_CzAtFla6GQySJcf-66" vertex="1">
          <mxGeometry x="10" y="110" width="10" height="10" as="geometry" />
        </mxCell>
        <mxCell id="IR68_CzAtFla6GQySJcf-79" value="" style="rounded=0;whiteSpace=wrap;html=1;fontSize=22;" parent="IR68_CzAtFla6GQySJcf-66" vertex="1">
          <mxGeometry x="10" y="120" width="10" height="10" as="geometry" />
        </mxCell>
        <mxCell id="IR68_CzAtFla6GQySJcf-80" value="" style="rounded=0;whiteSpace=wrap;html=1;fontSize=22;" parent="IR68_CzAtFla6GQySJcf-66" vertex="1">
          <mxGeometry x="30" y="90" width="10" height="10" as="geometry" />
        </mxCell>
        <mxCell id="IR68_CzAtFla6GQySJcf-81" value="" style="rounded=0;whiteSpace=wrap;html=1;fontSize=22;" parent="IR68_CzAtFla6GQySJcf-66" vertex="1">
          <mxGeometry x="30" y="100" width="10" height="10" as="geometry" />
        </mxCell>
        <mxCell id="IR68_CzAtFla6GQySJcf-82" value="" style="rounded=0;whiteSpace=wrap;html=1;fontSize=22;" parent="IR68_CzAtFla6GQySJcf-66" vertex="1">
          <mxGeometry x="30" y="110" width="10" height="15" as="geometry" />
        </mxCell>
        <mxCell id="IR68_CzAtFla6GQySJcf-83" value="" style="rounded=0;whiteSpace=wrap;html=1;fontSize=22;" parent="IR68_CzAtFla6GQySJcf-66" vertex="1">
          <mxGeometry x="30" y="120" width="10" height="10" as="geometry" />
        </mxCell>
        <mxCell id="IR68_CzAtFla6GQySJcf-84" value="" style="ellipse;whiteSpace=wrap;html=1;aspect=fixed;fontSize=11;" parent="IR68_CzAtFla6GQySJcf-66" vertex="1">
          <mxGeometry x="10" y="155" width="10" height="10" as="geometry" />
        </mxCell>
        <mxCell id="IR68_CzAtFla6GQySJcf-85" value="" style="ellipse;whiteSpace=wrap;html=1;aspect=fixed;fontSize=11;" parent="IR68_CzAtFla6GQySJcf-66" vertex="1">
          <mxGeometry x="30" y="155" width="10" height="10" as="geometry" />
        </mxCell>
        <mxCell id="IR68_CzAtFla6GQySJcf-86" value="" style="endArrow=classic;html=1;rounded=0;fontSize=11;exitX=0.5;exitY=0;exitDx=0;exitDy=0;entryX=0.5;entryY=1;entryDx=0;entryDy=0;" parent="IR68_CzAtFla6GQySJcf-66" source="IR68_CzAtFla6GQySJcf-84" target="IR68_CzAtFla6GQySJcf-79" edge="1">
          <mxGeometry width="50" height="50" relative="1" as="geometry">
            <mxPoint x="-20" y="65" as="sourcePoint" />
            <mxPoint x="30" y="15" as="targetPoint" />
          </mxGeometry>
        </mxCell>
        <mxCell id="IR68_CzAtFla6GQySJcf-87" value="" style="endArrow=classic;html=1;rounded=0;fontSize=11;exitX=0.5;exitY=0;exitDx=0;exitDy=0;entryX=0.5;entryY=1;entryDx=0;entryDy=0;" parent="IR68_CzAtFla6GQySJcf-66" source="IR68_CzAtFla6GQySJcf-85" target="IR68_CzAtFla6GQySJcf-83" edge="1">
          <mxGeometry width="50" height="50" relative="1" as="geometry">
            <mxPoint x="34.81999999999999" y="155" as="sourcePoint" />
            <mxPoint x="34.81999999999999" y="130" as="targetPoint" />
          </mxGeometry>
        </mxCell>
        <mxCell id="IR68_CzAtFla6GQySJcf-88" value="" style="endArrow=classic;html=1;rounded=0;fontSize=11;exitX=0.5;exitY=0;exitDx=0;exitDy=0;entryX=0.5;entryY=1;entryDx=0;entryDy=0;" parent="IR68_CzAtFla6GQySJcf-66" edge="1">
          <mxGeometry width="50" height="50" relative="1" as="geometry">
            <mxPoint x="24.849999999999966" y="25" as="sourcePoint" />
            <mxPoint x="24.849999999999966" as="targetPoint" />
          </mxGeometry>
        </mxCell>
        <mxCell id="IR68_CzAtFla6GQySJcf-89" value="UI&lt;br&gt;Features" style="text;html=1;align=center;verticalAlign=middle;whiteSpace=wrap;rounded=0;fontSize=11;" parent="IR68_CzAtFla6GQySJcf-42" vertex="1">
          <mxGeometry y="170" width="60" height="30" as="geometry" />
        </mxCell>
        <mxCell id="IR68_CzAtFla6GQySJcf-90" value="User Profile&lt;br&gt;Features" style="text;html=1;align=center;verticalAlign=middle;whiteSpace=wrap;rounded=0;fontSize=11;" parent="IR68_CzAtFla6GQySJcf-42" vertex="1">
          <mxGeometry x="70" y="170" width="65" height="30" as="geometry" />
        </mxCell>
        <mxCell id="IR68_CzAtFla6GQySJcf-129" value="" style="group" parent="1" vertex="1" connectable="0">
          <mxGeometry x="1170" y="321.65" width="65" height="200" as="geometry" />
        </mxCell>
        <mxCell id="IR68_CzAtFla6GQySJcf-130" value="" style="group" parent="IR68_CzAtFla6GQySJcf-129" vertex="1" connectable="0">
          <mxGeometry x="5" width="50" height="165" as="geometry" />
        </mxCell>
        <mxCell id="IR68_CzAtFla6GQySJcf-131" value="" style="group" parent="IR68_CzAtFla6GQySJcf-130" vertex="1" connectable="0">
          <mxGeometry y="25" width="50" height="65" as="geometry" />
        </mxCell>
        <mxCell id="IR68_CzAtFla6GQySJcf-132" value="" style="group" parent="IR68_CzAtFla6GQySJcf-131" vertex="1" connectable="0">
          <mxGeometry x="5" width="40" height="10" as="geometry" />
        </mxCell>
        <mxCell id="IR68_CzAtFla6GQySJcf-133" value="" style="rounded=0;whiteSpace=wrap;html=1;fontSize=22;" parent="IR68_CzAtFla6GQySJcf-132" vertex="1">
          <mxGeometry width="10" height="10" as="geometry" />
        </mxCell>
        <mxCell id="IR68_CzAtFla6GQySJcf-134" style="edgeStyle=none;rounded=0;orthogonalLoop=1;jettySize=auto;html=1;exitX=1;exitY=1;exitDx=0;exitDy=0;fontSize=22;" parent="IR68_CzAtFla6GQySJcf-132" source="IR68_CzAtFla6GQySJcf-133" target="IR68_CzAtFla6GQySJcf-133" edge="1">
          <mxGeometry relative="1" as="geometry" />
        </mxCell>
        <mxCell id="IR68_CzAtFla6GQySJcf-135" value="" style="rounded=0;whiteSpace=wrap;html=1;fontSize=22;" parent="IR68_CzAtFla6GQySJcf-132" vertex="1">
          <mxGeometry x="10" width="10" height="10" as="geometry" />
        </mxCell>
        <mxCell id="IR68_CzAtFla6GQySJcf-136" value="" style="rounded=0;whiteSpace=wrap;html=1;fontSize=22;" parent="IR68_CzAtFla6GQySJcf-132" vertex="1">
          <mxGeometry x="20" width="10" height="10" as="geometry" />
        </mxCell>
        <mxCell id="IR68_CzAtFla6GQySJcf-137" value="" style="rounded=0;whiteSpace=wrap;html=1;fontSize=22;" parent="IR68_CzAtFla6GQySJcf-132" vertex="1">
          <mxGeometry x="30" width="10" height="10" as="geometry" />
        </mxCell>
        <mxCell id="IR68_CzAtFla6GQySJcf-138" value="" style="shape=curlyBracket;whiteSpace=wrap;html=1;rounded=1;flipH=1;fontSize=22;rotation=-90;size=0.5;" parent="IR68_CzAtFla6GQySJcf-131" vertex="1">
          <mxGeometry x="15" y="30" width="20" height="50" as="geometry" />
        </mxCell>
        <mxCell id="IR68_CzAtFla6GQySJcf-139" value="&lt;font style=&quot;font-size: 11px;&quot;&gt;concat&lt;/font&gt;" style="rounded=1;whiteSpace=wrap;html=1;fontSize=11;" parent="IR68_CzAtFla6GQySJcf-131" vertex="1">
          <mxGeometry x="2.5" y="20" width="45" height="20" as="geometry" />
        </mxCell>
        <mxCell id="IR68_CzAtFla6GQySJcf-140" value="" style="rounded=0;whiteSpace=wrap;html=1;fontSize=22;" parent="IR68_CzAtFla6GQySJcf-130" vertex="1">
          <mxGeometry x="10" y="90" width="10" height="10" as="geometry" />
        </mxCell>
        <mxCell id="IR68_CzAtFla6GQySJcf-141" value="" style="rounded=0;whiteSpace=wrap;html=1;fontSize=22;" parent="IR68_CzAtFla6GQySJcf-130" vertex="1">
          <mxGeometry x="10" y="100" width="10" height="10" as="geometry" />
        </mxCell>
        <mxCell id="IR68_CzAtFla6GQySJcf-142" value="" style="rounded=0;whiteSpace=wrap;html=1;fontSize=22;" parent="IR68_CzAtFla6GQySJcf-130" vertex="1">
          <mxGeometry x="10" y="110" width="10" height="10" as="geometry" />
        </mxCell>
        <mxCell id="IR68_CzAtFla6GQySJcf-143" value="" style="rounded=0;whiteSpace=wrap;html=1;fontSize=22;" parent="IR68_CzAtFla6GQySJcf-130" vertex="1">
          <mxGeometry x="10" y="120" width="10" height="10" as="geometry" />
        </mxCell>
        <mxCell id="IR68_CzAtFla6GQySJcf-144" value="" style="rounded=0;whiteSpace=wrap;html=1;fontSize=22;" parent="IR68_CzAtFla6GQySJcf-130" vertex="1">
          <mxGeometry x="30" y="90" width="10" height="10" as="geometry" />
        </mxCell>
        <mxCell id="IR68_CzAtFla6GQySJcf-145" value="" style="rounded=0;whiteSpace=wrap;html=1;fontSize=22;" parent="IR68_CzAtFla6GQySJcf-130" vertex="1">
          <mxGeometry x="30" y="100" width="10" height="10" as="geometry" />
        </mxCell>
        <mxCell id="IR68_CzAtFla6GQySJcf-146" value="" style="rounded=0;whiteSpace=wrap;html=1;fontSize=22;" parent="IR68_CzAtFla6GQySJcf-130" vertex="1">
          <mxGeometry x="30" y="110" width="10" height="15" as="geometry" />
        </mxCell>
        <mxCell id="IR68_CzAtFla6GQySJcf-147" value="" style="rounded=0;whiteSpace=wrap;html=1;fontSize=22;" parent="IR68_CzAtFla6GQySJcf-130" vertex="1">
          <mxGeometry x="30" y="120" width="10" height="10" as="geometry" />
        </mxCell>
        <mxCell id="IR68_CzAtFla6GQySJcf-148" value="" style="ellipse;whiteSpace=wrap;html=1;aspect=fixed;fontSize=11;" parent="IR68_CzAtFla6GQySJcf-130" vertex="1">
          <mxGeometry x="10" y="155" width="10" height="10" as="geometry" />
        </mxCell>
        <mxCell id="IR68_CzAtFla6GQySJcf-149" value="" style="ellipse;whiteSpace=wrap;html=1;aspect=fixed;fontSize=11;" parent="IR68_CzAtFla6GQySJcf-130" vertex="1">
          <mxGeometry x="30" y="155" width="10" height="10" as="geometry" />
        </mxCell>
        <mxCell id="IR68_CzAtFla6GQySJcf-150" value="" style="endArrow=classic;html=1;rounded=0;fontSize=11;exitX=0.5;exitY=0;exitDx=0;exitDy=0;entryX=0.5;entryY=1;entryDx=0;entryDy=0;" parent="IR68_CzAtFla6GQySJcf-130" source="IR68_CzAtFla6GQySJcf-148" target="IR68_CzAtFla6GQySJcf-143" edge="1">
          <mxGeometry width="50" height="50" relative="1" as="geometry">
            <mxPoint x="-20" y="65" as="sourcePoint" />
            <mxPoint x="30" y="15" as="targetPoint" />
          </mxGeometry>
        </mxCell>
        <mxCell id="IR68_CzAtFla6GQySJcf-151" value="" style="endArrow=classic;html=1;rounded=0;fontSize=11;exitX=0.5;exitY=0;exitDx=0;exitDy=0;entryX=0.5;entryY=1;entryDx=0;entryDy=0;" parent="IR68_CzAtFla6GQySJcf-130" source="IR68_CzAtFla6GQySJcf-149" target="IR68_CzAtFla6GQySJcf-147" edge="1">
          <mxGeometry width="50" height="50" relative="1" as="geometry">
            <mxPoint x="34.81999999999999" y="155" as="sourcePoint" />
            <mxPoint x="34.81999999999999" y="130" as="targetPoint" />
          </mxGeometry>
        </mxCell>
        <mxCell id="IR68_CzAtFla6GQySJcf-152" value="" style="endArrow=classic;html=1;rounded=0;fontSize=11;exitX=0.5;exitY=0;exitDx=0;exitDy=0;entryX=0.5;entryY=1;entryDx=0;entryDy=0;" parent="IR68_CzAtFla6GQySJcf-130" edge="1">
          <mxGeometry width="50" height="50" relative="1" as="geometry">
            <mxPoint x="24.849999999999966" y="25" as="sourcePoint" />
            <mxPoint x="24.849999999999966" as="targetPoint" />
          </mxGeometry>
        </mxCell>
        <mxCell id="IR68_CzAtFla6GQySJcf-153" value="Cross&lt;br&gt;Features" style="text;html=1;align=center;verticalAlign=middle;whiteSpace=wrap;rounded=0;fontSize=11;" parent="IR68_CzAtFla6GQySJcf-129" vertex="1">
          <mxGeometry y="170" width="65" height="30" as="geometry" />
        </mxCell>
        <mxCell id="IR68_CzAtFla6GQySJcf-156" value="" style="endArrow=classic;html=1;rounded=0;fontFamily=Georgia;fontSize=11;exitX=0.75;exitY=0;exitDx=0;exitDy=0;entryX=0.75;entryY=1;entryDx=0;entryDy=0;" parent="1" source="IR68_CzAtFla6GQySJcf-398" target="IR68_CzAtFla6GQySJcf-41" edge="1">
          <mxGeometry width="50" height="50" relative="1" as="geometry">
            <mxPoint x="1128" y="390" as="sourcePoint" />
            <mxPoint x="1151" y="370" as="targetPoint" />
          </mxGeometry>
        </mxCell>
        <mxCell id="IR68_CzAtFla6GQySJcf-157" value="" style="group" parent="1" vertex="1" connectable="0">
          <mxGeometry x="1114" y="500" width="80" height="120" as="geometry" />
        </mxCell>
        <mxCell id="IR68_CzAtFla6GQySJcf-158" value="" style="group" parent="IR68_CzAtFla6GQySJcf-157" vertex="1" connectable="0">
          <mxGeometry x="-182.3876923076923" y="60.83000000000001" width="40" height="44.57142857142857" as="geometry" />
        </mxCell>
        <mxCell id="IR68_CzAtFla6GQySJcf-159" value="" style="shape=curlyBracket;whiteSpace=wrap;html=1;rounded=1;flipH=1;fontSize=22;rotation=-90;size=0.5;" parent="IR68_CzAtFla6GQySJcf-158" vertex="1">
          <mxGeometry x="18.076923076923077" y="36.62142857142857" width="10.769230769230768" height="34.285714285714285" as="geometry" />
        </mxCell>
        <mxCell id="IR68_CzAtFla6GQySJcf-160" value="&lt;font style=&quot;font-size: 11px;&quot;&gt;concat&lt;/font&gt;" style="rounded=1;whiteSpace=wrap;html=1;fontSize=11;" parent="IR68_CzAtFla6GQySJcf-158" vertex="1">
          <mxGeometry x="4.14" y="36.05" width="38.65" height="10.43" as="geometry" />
        </mxCell>
        <mxCell id="eDhHdD21VxhMocc9II1k-331" style="edgeStyle=none;rounded=0;orthogonalLoop=1;jettySize=auto;html=1;exitX=0.5;exitY=0;exitDx=0;exitDy=0;fontFamily=Georgia;fontSize=10;" parent="IR68_CzAtFla6GQySJcf-158" edge="1">
          <mxGeometry relative="1" as="geometry">
            <mxPoint x="23.457692307692206" y="9.880000000000045" as="targetPoint" />
            <mxPoint x="23.227692307692188" y="36.04999999999989" as="sourcePoint" />
          </mxGeometry>
        </mxCell>
        <mxCell id="IR68_CzAtFla6GQySJcf-161" value="" style="rounded=0;whiteSpace=wrap;html=1;fontSize=22;" parent="IR68_CzAtFla6GQySJcf-157" vertex="1">
          <mxGeometry x="-167.00307692307695" y="121.45142857142858" width="5.384615384615384" height="6.857142857142857" as="geometry" />
        </mxCell>
        <mxCell id="IR68_CzAtFla6GQySJcf-162" value="" style="rounded=0;whiteSpace=wrap;html=1;fontSize=22;" parent="IR68_CzAtFla6GQySJcf-157" vertex="1">
          <mxGeometry x="-167.00307692307695" y="128.30857142857144" width="5.384615384615384" height="6.857142857142857" as="geometry" />
        </mxCell>
        <mxCell id="IR68_CzAtFla6GQySJcf-163" value="" style="rounded=0;whiteSpace=wrap;html=1;fontSize=22;" parent="IR68_CzAtFla6GQySJcf-157" vertex="1">
          <mxGeometry x="-167.00307692307695" y="135.1657142857143" width="5.384615384615384" height="6.857142857142857" as="geometry" />
        </mxCell>
        <mxCell id="IR68_CzAtFla6GQySJcf-164" value="" style="rounded=0;whiteSpace=wrap;html=1;fontSize=22;" parent="IR68_CzAtFla6GQySJcf-157" vertex="1">
          <mxGeometry x="-167.00307692307695" y="142.02285714285716" width="5.384615384615384" height="6.857142857142857" as="geometry" />
        </mxCell>
        <mxCell id="IR68_CzAtFla6GQySJcf-165" value="" style="rounded=0;whiteSpace=wrap;html=1;fontSize=22;" parent="IR68_CzAtFla6GQySJcf-157" vertex="1">
          <mxGeometry x="-155.08384615384617" y="121.45142857142858" width="5.384615384615384" height="6.857142857142857" as="geometry" />
        </mxCell>
        <mxCell id="IR68_CzAtFla6GQySJcf-166" value="" style="rounded=0;whiteSpace=wrap;html=1;fontSize=22;" parent="IR68_CzAtFla6GQySJcf-157" vertex="1">
          <mxGeometry x="-155.08384615384617" y="128.30857142857144" width="5.384615384615384" height="6.857142857142857" as="geometry" />
        </mxCell>
        <mxCell id="IR68_CzAtFla6GQySJcf-167" value="" style="rounded=0;whiteSpace=wrap;html=1;fontSize=22;" parent="IR68_CzAtFla6GQySJcf-157" vertex="1">
          <mxGeometry x="-155.08384615384617" y="135.1657142857143" width="5.384615384615384" height="10.285714285714285" as="geometry" />
        </mxCell>
        <mxCell id="IR68_CzAtFla6GQySJcf-168" value="" style="rounded=0;whiteSpace=wrap;html=1;fontSize=22;" parent="IR68_CzAtFla6GQySJcf-157" vertex="1">
          <mxGeometry x="-155.08384615384617" y="142.02285714285716" width="5.384615384615384" height="6.857142857142857" as="geometry" />
        </mxCell>
        <mxCell id="IR68_CzAtFla6GQySJcf-169" value="" style="ellipse;whiteSpace=wrap;html=1;aspect=fixed;fontSize=11;" parent="IR68_CzAtFla6GQySJcf-157" vertex="1">
          <mxGeometry x="-167.00307692307695" y="166.02285714285716" width="4.615384615384615" height="4.615384615384615" as="geometry" />
        </mxCell>
        <mxCell id="IR68_CzAtFla6GQySJcf-170" value="" style="ellipse;whiteSpace=wrap;html=1;aspect=fixed;fontSize=11;" parent="IR68_CzAtFla6GQySJcf-157" vertex="1">
          <mxGeometry x="-155.08384615384617" y="166.02285714285716" width="4.615384615384615" height="4.615384615384615" as="geometry" />
        </mxCell>
        <mxCell id="IR68_CzAtFla6GQySJcf-171" value="" style="endArrow=classic;html=1;rounded=0;fontSize=11;exitX=0.5;exitY=0;exitDx=0;exitDy=0;entryX=0.5;entryY=1;entryDx=0;entryDy=0;" parent="IR68_CzAtFla6GQySJcf-157" source="IR68_CzAtFla6GQySJcf-169" target="IR68_CzAtFla6GQySJcf-164" edge="1">
          <mxGeometry width="50" height="50" relative="1" as="geometry">
            <mxPoint x="-498.156923076923" y="-108.26285714285711" as="sourcePoint" />
            <mxPoint x="-471.2338461538461" y="-142.5485714285714" as="targetPoint" />
          </mxGeometry>
        </mxCell>
        <mxCell id="IR68_CzAtFla6GQySJcf-172" value="" style="endArrow=classic;html=1;rounded=0;fontSize=11;exitX=0.5;exitY=0;exitDx=0;exitDy=0;entryX=0.5;entryY=1;entryDx=0;entryDy=0;" parent="IR68_CzAtFla6GQySJcf-157" source="IR68_CzAtFla6GQySJcf-170" target="IR68_CzAtFla6GQySJcf-168" edge="1">
          <mxGeometry width="50" height="50" relative="1" as="geometry">
            <mxPoint x="-467.4884615384616" y="-46.54857142857141" as="sourcePoint" />
            <mxPoint x="-467.4884615384616" y="-63.69142857142853" as="targetPoint" />
          </mxGeometry>
        </mxCell>
        <mxCell id="IR68_CzAtFla6GQySJcf-173" value="&lt;font style=&quot;font-size: 9px;&quot; face=&quot;Georgia&quot;&gt;&lt;i&gt;Item &lt;sub&gt;sN&lt;/sub&gt;&lt;/i&gt;&lt;/font&gt;" style="text;html=1;align=center;verticalAlign=middle;whiteSpace=wrap;rounded=0;fontSize=11;" parent="IR68_CzAtFla6GQySJcf-157" vertex="1">
          <mxGeometry x="-190.39000000000001" y="166.02000000000004" width="60" height="20.57" as="geometry" />
        </mxCell>
        <mxCell id="IR68_CzAtFla6GQySJcf-179" style="edgeStyle=orthogonalEdgeStyle;rounded=0;orthogonalLoop=1;jettySize=auto;html=1;entryX=0.5;entryY=1;entryDx=0;entryDy=0;" parent="1" target="IR68_CzAtFla6GQySJcf-183" edge="1">
          <mxGeometry relative="1" as="geometry">
            <mxPoint x="1111.8100000000002" y="299.9999999999998" as="sourcePoint" />
            <Array as="points">
              <mxPoint x="1111.5" y="280" />
              <mxPoint x="1111.5" y="280" />
            </Array>
          </mxGeometry>
        </mxCell>
        <mxCell id="IR68_CzAtFla6GQySJcf-180" style="edgeStyle=orthogonalEdgeStyle;rounded=0;orthogonalLoop=1;jettySize=auto;html=1;entryX=0.5;entryY=1;entryDx=0;entryDy=0;" parent="1" target="IR68_CzAtFla6GQySJcf-182" edge="1">
          <mxGeometry relative="1" as="geometry">
            <mxPoint x="861.8100000000002" y="299.9999999999998" as="sourcePoint" />
            <Array as="points">
              <mxPoint x="861.8100000000002" y="300" />
            </Array>
          </mxGeometry>
        </mxCell>
        <mxCell id="IR68_CzAtFla6GQySJcf-181" style="edgeStyle=orthogonalEdgeStyle;rounded=0;orthogonalLoop=1;jettySize=auto;html=1;entryX=0.5;entryY=1;entryDx=0;entryDy=0;" parent="1" target="IR68_CzAtFla6GQySJcf-193" edge="1">
          <mxGeometry relative="1" as="geometry">
            <mxPoint x="990.8100000000002" y="299.9999999999998" as="sourcePoint" />
            <Array as="points">
              <mxPoint x="990.8100000000002" y="300" />
              <mxPoint x="990.8100000000002" y="280" />
            </Array>
          </mxGeometry>
        </mxCell>
        <mxCell id="IR68_CzAtFla6GQySJcf-182" value="CTR_tower" style="rounded=0;whiteSpace=wrap;html=1;" parent="1" vertex="1">
          <mxGeometry x="816.8100000000002" y="220" width="90" height="40" as="geometry" />
        </mxCell>
        <mxCell id="IR68_CzAtFla6GQySJcf-183" value="CVR_tower" style="rounded=0;whiteSpace=wrap;html=1;" parent="1" vertex="1">
          <mxGeometry x="1066.8100000000002" y="220" width="90" height="40" as="geometry" />
        </mxCell>
        <mxCell id="IR68_CzAtFla6GQySJcf-184" value="sigmoid" style="rounded=0;whiteSpace=wrap;html=1;" parent="1" vertex="1">
          <mxGeometry x="816.8100000000002" y="150" width="90" height="30" as="geometry" />
        </mxCell>
        <mxCell id="IR68_CzAtFla6GQySJcf-185" style="edgeStyle=orthogonalEdgeStyle;rounded=0;orthogonalLoop=1;jettySize=auto;html=1;exitX=0.5;exitY=0;exitDx=0;exitDy=0;entryX=0.5;entryY=1;entryDx=0;entryDy=0;" parent="1" source="IR68_CzAtFla6GQySJcf-182" target="IR68_CzAtFla6GQySJcf-184" edge="1">
          <mxGeometry relative="1" as="geometry" />
        </mxCell>
        <mxCell id="IR68_CzAtFla6GQySJcf-186" value="sigmoid" style="rounded=0;whiteSpace=wrap;html=1;" parent="1" vertex="1">
          <mxGeometry x="1066.8100000000002" y="150" width="90" height="30" as="geometry" />
        </mxCell>
        <mxCell id="IR68_CzAtFla6GQySJcf-187" style="edgeStyle=orthogonalEdgeStyle;rounded=0;orthogonalLoop=1;jettySize=auto;html=1;exitX=0.5;exitY=0;exitDx=0;exitDy=0;entryX=0.5;entryY=1;entryDx=0;entryDy=0;" parent="1" source="IR68_CzAtFla6GQySJcf-183" target="IR68_CzAtFla6GQySJcf-186" edge="1">
          <mxGeometry relative="1" as="geometry" />
        </mxCell>
        <mxCell id="IR68_CzAtFla6GQySJcf-188" style="edgeStyle=none;rounded=0;orthogonalLoop=1;jettySize=auto;html=1;exitX=0.5;exitY=0;exitDx=0;exitDy=0;fontSize=21;" parent="1" source="IR68_CzAtFla6GQySJcf-189" edge="1">
          <mxGeometry relative="1" as="geometry">
            <mxPoint x="861.886923076923" y="80" as="targetPoint" />
          </mxGeometry>
        </mxCell>
        <mxCell id="IR68_CzAtFla6GQySJcf-189" value="" style="ellipse;whiteSpace=wrap;html=1;aspect=fixed;" parent="1" vertex="1">
          <mxGeometry x="851.8100000000002" y="100" width="20" height="20" as="geometry" />
        </mxCell>
        <mxCell id="IR68_CzAtFla6GQySJcf-190" style="edgeStyle=orthogonalEdgeStyle;rounded=0;orthogonalLoop=1;jettySize=auto;html=1;exitX=0.5;exitY=0;exitDx=0;exitDy=0;entryX=0.5;entryY=1;entryDx=0;entryDy=0;" parent="1" source="IR68_CzAtFla6GQySJcf-184" target="IR68_CzAtFla6GQySJcf-189" edge="1">
          <mxGeometry relative="1" as="geometry" />
        </mxCell>
        <mxCell id="IR68_CzAtFla6GQySJcf-191" style="edgeStyle=orthogonalEdgeStyle;rounded=0;orthogonalLoop=1;jettySize=auto;html=1;exitX=0.5;exitY=0;exitDx=0;exitDy=0;entryX=1;entryY=0.5;entryDx=0;entryDy=0;" parent="1" source="IR68_CzAtFla6GQySJcf-193" target="IR68_CzAtFla6GQySJcf-184" edge="1">
          <mxGeometry relative="1" as="geometry" />
        </mxCell>
        <mxCell id="IR68_CzAtFla6GQySJcf-192" style="edgeStyle=orthogonalEdgeStyle;rounded=0;orthogonalLoop=1;jettySize=auto;html=1;exitX=0.5;exitY=0;exitDx=0;exitDy=0;entryX=0;entryY=0.5;entryDx=0;entryDy=0;" parent="1" source="IR68_CzAtFla6GQySJcf-193" target="IR68_CzAtFla6GQySJcf-186" edge="1">
          <mxGeometry relative="1" as="geometry" />
        </mxCell>
        <mxCell id="IR68_CzAtFla6GQySJcf-193" value="Bias_tower" style="rounded=0;whiteSpace=wrap;html=1;" parent="1" vertex="1">
          <mxGeometry x="950.3100000000002" y="220" width="80" height="40" as="geometry" />
        </mxCell>
        <mxCell id="IR68_CzAtFla6GQySJcf-194" value="" style="ellipse;whiteSpace=wrap;html=1;aspect=fixed;" parent="1" vertex="1">
          <mxGeometry x="1101.8100000000002" y="100" width="20" height="20" as="geometry" />
        </mxCell>
        <mxCell id="IR68_CzAtFla6GQySJcf-195" style="edgeStyle=orthogonalEdgeStyle;rounded=0;orthogonalLoop=1;jettySize=auto;html=1;exitX=0.5;exitY=0;exitDx=0;exitDy=0;entryX=0.5;entryY=1;entryDx=0;entryDy=0;" parent="1" source="IR68_CzAtFla6GQySJcf-186" target="IR68_CzAtFla6GQySJcf-194" edge="1">
          <mxGeometry relative="1" as="geometry" />
        </mxCell>
        <mxCell id="IR68_CzAtFla6GQySJcf-196" style="edgeStyle=none;rounded=0;orthogonalLoop=1;jettySize=auto;html=1;exitX=0.5;exitY=0;exitDx=0;exitDy=0;fontSize=21;" parent="1" edge="1">
          <mxGeometry relative="1" as="geometry">
            <mxPoint x="990.3484615384616" y="50" as="targetPoint" />
            <mxPoint x="990.3100000000002" y="70" as="sourcePoint" />
          </mxGeometry>
        </mxCell>
        <mxCell id="IR68_CzAtFla6GQySJcf-197" style="rounded=0;orthogonalLoop=1;jettySize=auto;html=1;exitX=1;exitY=0;exitDx=0;exitDy=0;entryX=0;entryY=0.5;entryDx=0;entryDy=0;fontSize=21;" parent="1" source="IR68_CzAtFla6GQySJcf-189" edge="1">
          <mxGeometry relative="1" as="geometry">
            <mxPoint x="980.3100000000006" y="80" as="targetPoint" />
          </mxGeometry>
        </mxCell>
        <mxCell id="IR68_CzAtFla6GQySJcf-198" style="edgeStyle=none;rounded=0;orthogonalLoop=1;jettySize=auto;html=1;exitX=0;exitY=0;exitDx=0;exitDy=0;entryX=1;entryY=0.5;entryDx=0;entryDy=0;fontSize=21;" parent="1" source="IR68_CzAtFla6GQySJcf-194" edge="1">
          <mxGeometry relative="1" as="geometry">
            <mxPoint x="1000.3100000000006" y="80" as="targetPoint" />
          </mxGeometry>
        </mxCell>
        <mxCell id="IR68_CzAtFla6GQySJcf-199" value="&lt;font style=&quot;font-size: 12px;&quot;&gt;pCTR&lt;/font&gt;" style="text;html=1;align=center;verticalAlign=middle;whiteSpace=wrap;rounded=0;fontSize=21;" parent="1" vertex="1">
          <mxGeometry x="867.8100000000002" y="100" width="60" height="30" as="geometry" />
        </mxCell>
        <mxCell id="IR68_CzAtFla6GQySJcf-200" value="&lt;font style=&quot;font-size: 12px;&quot;&gt;pCVR&lt;/font&gt;" style="text;html=1;align=center;verticalAlign=middle;whiteSpace=wrap;rounded=0;fontSize=21;" parent="1" vertex="1">
          <mxGeometry x="1117.5000000000002" y="95" width="60" height="30" as="geometry" />
        </mxCell>
        <mxCell id="IR68_CzAtFla6GQySJcf-201" value="" style="group" parent="1" vertex="1" connectable="0">
          <mxGeometry x="531.92" y="560.8299999999999" width="80" height="125.76000000000002" as="geometry" />
        </mxCell>
        <mxCell id="IR68_CzAtFla6GQySJcf-202" value="" style="group" parent="IR68_CzAtFla6GQySJcf-201" vertex="1" connectable="0">
          <mxGeometry x="34.00230769230769" width="40" height="44.57142857142857" as="geometry" />
        </mxCell>
        <mxCell id="IR68_CzAtFla6GQySJcf-203" value="" style="shape=curlyBracket;whiteSpace=wrap;html=1;rounded=1;flipH=1;fontSize=22;rotation=-90;size=0.5;" parent="IR68_CzAtFla6GQySJcf-202" vertex="1">
          <mxGeometry x="18.076923076923077" y="36.62142857142857" width="10.769230769230768" height="34.285714285714285" as="geometry" />
        </mxCell>
        <mxCell id="IR68_CzAtFla6GQySJcf-204" value="&lt;font style=&quot;font-size: 11px;&quot;&gt;concat&lt;/font&gt;" style="rounded=1;whiteSpace=wrap;html=1;fontSize=11;" parent="IR68_CzAtFla6GQySJcf-202" vertex="1">
          <mxGeometry x="4.14" y="36.05" width="38.65" height="10.43" as="geometry" />
        </mxCell>
        <mxCell id="IR68_CzAtFla6GQySJcf-205" value="" style="rounded=0;whiteSpace=wrap;html=1;fontSize=22;" parent="IR68_CzAtFla6GQySJcf-201" vertex="1">
          <mxGeometry x="49.386923076923075" y="60.62142857142857" width="5.384615384615384" height="6.857142857142857" as="geometry" />
        </mxCell>
        <mxCell id="IR68_CzAtFla6GQySJcf-206" value="" style="rounded=0;whiteSpace=wrap;html=1;fontSize=22;" parent="IR68_CzAtFla6GQySJcf-201" vertex="1">
          <mxGeometry x="49.386923076923075" y="67.47857142857143" width="5.384615384615384" height="6.857142857142857" as="geometry" />
        </mxCell>
        <mxCell id="IR68_CzAtFla6GQySJcf-207" value="" style="rounded=0;whiteSpace=wrap;html=1;fontSize=22;" parent="IR68_CzAtFla6GQySJcf-201" vertex="1">
          <mxGeometry x="49.386923076923075" y="74.33571428571429" width="5.384615384615384" height="6.857142857142857" as="geometry" />
        </mxCell>
        <mxCell id="IR68_CzAtFla6GQySJcf-208" value="" style="rounded=0;whiteSpace=wrap;html=1;fontSize=22;" parent="IR68_CzAtFla6GQySJcf-201" vertex="1">
          <mxGeometry x="49.386923076923075" y="81.19285714285714" width="5.384615384615384" height="6.857142857142857" as="geometry" />
        </mxCell>
        <mxCell id="IR68_CzAtFla6GQySJcf-209" value="" style="rounded=0;whiteSpace=wrap;html=1;fontSize=22;" parent="IR68_CzAtFla6GQySJcf-201" vertex="1">
          <mxGeometry x="61.30615384615385" y="60.62142857142857" width="5.384615384615384" height="6.857142857142857" as="geometry" />
        </mxCell>
        <mxCell id="IR68_CzAtFla6GQySJcf-210" value="" style="rounded=0;whiteSpace=wrap;html=1;fontSize=22;" parent="IR68_CzAtFla6GQySJcf-201" vertex="1">
          <mxGeometry x="61.30615384615385" y="67.47857142857143" width="5.384615384615384" height="6.857142857142857" as="geometry" />
        </mxCell>
        <mxCell id="IR68_CzAtFla6GQySJcf-211" value="" style="rounded=0;whiteSpace=wrap;html=1;fontSize=22;" parent="IR68_CzAtFla6GQySJcf-201" vertex="1">
          <mxGeometry x="61.30615384615385" y="74.33571428571429" width="5.384615384615384" height="10.285714285714285" as="geometry" />
        </mxCell>
        <mxCell id="IR68_CzAtFla6GQySJcf-212" value="" style="rounded=0;whiteSpace=wrap;html=1;fontSize=22;" parent="IR68_CzAtFla6GQySJcf-201" vertex="1">
          <mxGeometry x="61.30615384615385" y="81.19285714285714" width="5.384615384615384" height="6.857142857142857" as="geometry" />
        </mxCell>
        <mxCell id="IR68_CzAtFla6GQySJcf-213" value="" style="ellipse;whiteSpace=wrap;html=1;aspect=fixed;fontSize=11;" parent="IR68_CzAtFla6GQySJcf-201" vertex="1">
          <mxGeometry x="49.386923076923075" y="105.19285714285714" width="4.615384615384615" height="4.615384615384615" as="geometry" />
        </mxCell>
        <mxCell id="IR68_CzAtFla6GQySJcf-214" value="" style="ellipse;whiteSpace=wrap;html=1;aspect=fixed;fontSize=11;" parent="IR68_CzAtFla6GQySJcf-201" vertex="1">
          <mxGeometry x="61.30615384615385" y="105.19285714285714" width="4.615384615384615" height="4.615384615384615" as="geometry" />
        </mxCell>
        <mxCell id="IR68_CzAtFla6GQySJcf-215" value="" style="endArrow=classic;html=1;rounded=0;fontSize=11;exitX=0.5;exitY=0;exitDx=0;exitDy=0;entryX=0.5;entryY=1;entryDx=0;entryDy=0;" parent="IR68_CzAtFla6GQySJcf-201" source="IR68_CzAtFla6GQySJcf-213" target="IR68_CzAtFla6GQySJcf-208" edge="1">
          <mxGeometry width="50" height="50" relative="1" as="geometry">
            <mxPoint x="-281.76692307692304" y="-169.09285714285713" as="sourcePoint" />
            <mxPoint x="-254.84384615384613" y="-203.3785714285714" as="targetPoint" />
          </mxGeometry>
        </mxCell>
        <mxCell id="IR68_CzAtFla6GQySJcf-216" value="" style="endArrow=classic;html=1;rounded=0;fontSize=11;exitX=0.5;exitY=0;exitDx=0;exitDy=0;entryX=0.5;entryY=1;entryDx=0;entryDy=0;" parent="IR68_CzAtFla6GQySJcf-201" source="IR68_CzAtFla6GQySJcf-214" target="IR68_CzAtFla6GQySJcf-212" edge="1">
          <mxGeometry width="50" height="50" relative="1" as="geometry">
            <mxPoint x="-251.0984615384616" y="-107.37857142857142" as="sourcePoint" />
            <mxPoint x="-251.0984615384616" y="-124.52142857142854" as="targetPoint" />
          </mxGeometry>
        </mxCell>
        <mxCell id="IR68_CzAtFla6GQySJcf-217" value="&lt;font style=&quot;font-size: 9px;&quot; face=&quot;Georgia&quot;&gt;&lt;i&gt;Item &lt;sub&gt;c2&lt;/sub&gt;&lt;/i&gt;&lt;/font&gt;" style="text;html=1;align=center;verticalAlign=middle;whiteSpace=wrap;rounded=0;fontSize=11;" parent="IR68_CzAtFla6GQySJcf-201" vertex="1">
          <mxGeometry x="26" y="105.19000000000001" width="60" height="20.57" as="geometry" />
        </mxCell>
        <mxCell id="IR68_CzAtFla6GQySJcf-220" value="" style="group" parent="IR68_CzAtFla6GQySJcf-201" vertex="1" connectable="0">
          <mxGeometry x="-41.887692307692305" width="40" height="44.57142857142857" as="geometry" />
        </mxCell>
        <mxCell id="IR68_CzAtFla6GQySJcf-221" value="" style="shape=curlyBracket;whiteSpace=wrap;html=1;rounded=1;flipH=1;fontSize=22;rotation=-90;size=0.5;" parent="IR68_CzAtFla6GQySJcf-220" vertex="1">
          <mxGeometry x="18.076923076923077" y="36.62142857142857" width="10.769230769230768" height="34.285714285714285" as="geometry" />
        </mxCell>
        <mxCell id="IR68_CzAtFla6GQySJcf-222" value="&lt;font style=&quot;font-size: 11px;&quot;&gt;concat&lt;/font&gt;" style="rounded=1;whiteSpace=wrap;html=1;fontSize=11;" parent="IR68_CzAtFla6GQySJcf-220" vertex="1">
          <mxGeometry x="4.14" y="36.05" width="38.65" height="10.43" as="geometry" />
        </mxCell>
        <mxCell id="IR68_CzAtFla6GQySJcf-223" value="" style="rounded=0;whiteSpace=wrap;html=1;fontSize=22;" parent="IR68_CzAtFla6GQySJcf-201" vertex="1">
          <mxGeometry x="-26.503076923076918" y="60.62142857142857" width="5.384615384615384" height="6.857142857142857" as="geometry" />
        </mxCell>
        <mxCell id="IR68_CzAtFla6GQySJcf-224" value="" style="rounded=0;whiteSpace=wrap;html=1;fontSize=22;" parent="IR68_CzAtFla6GQySJcf-201" vertex="1">
          <mxGeometry x="-26.503076923076918" y="67.47857142857143" width="5.384615384615384" height="6.857142857142857" as="geometry" />
        </mxCell>
        <mxCell id="IR68_CzAtFla6GQySJcf-225" value="" style="rounded=0;whiteSpace=wrap;html=1;fontSize=22;" parent="IR68_CzAtFla6GQySJcf-201" vertex="1">
          <mxGeometry x="-26.503076923076918" y="74.33571428571429" width="5.384615384615384" height="6.857142857142857" as="geometry" />
        </mxCell>
        <mxCell id="IR68_CzAtFla6GQySJcf-226" value="" style="rounded=0;whiteSpace=wrap;html=1;fontSize=22;" parent="IR68_CzAtFla6GQySJcf-201" vertex="1">
          <mxGeometry x="-26.503076923076918" y="81.19285714285714" width="5.384615384615384" height="6.857142857142857" as="geometry" />
        </mxCell>
        <mxCell id="IR68_CzAtFla6GQySJcf-227" value="" style="rounded=0;whiteSpace=wrap;html=1;fontSize=22;" parent="IR68_CzAtFla6GQySJcf-201" vertex="1">
          <mxGeometry x="-14.583846153846153" y="60.62142857142857" width="5.384615384615384" height="6.857142857142857" as="geometry" />
        </mxCell>
        <mxCell id="IR68_CzAtFla6GQySJcf-228" value="" style="rounded=0;whiteSpace=wrap;html=1;fontSize=22;" parent="IR68_CzAtFla6GQySJcf-201" vertex="1">
          <mxGeometry x="-14.583846153846153" y="67.47857142857143" width="5.384615384615384" height="6.857142857142857" as="geometry" />
        </mxCell>
        <mxCell id="IR68_CzAtFla6GQySJcf-229" value="" style="rounded=0;whiteSpace=wrap;html=1;fontSize=22;" parent="IR68_CzAtFla6GQySJcf-201" vertex="1">
          <mxGeometry x="-14.583846153846153" y="74.33571428571429" width="5.384615384615384" height="10.285714285714285" as="geometry" />
        </mxCell>
        <mxCell id="IR68_CzAtFla6GQySJcf-230" value="" style="rounded=0;whiteSpace=wrap;html=1;fontSize=22;" parent="IR68_CzAtFla6GQySJcf-201" vertex="1">
          <mxGeometry x="-14.583846153846153" y="81.19285714285714" width="5.384615384615384" height="6.857142857142857" as="geometry" />
        </mxCell>
        <mxCell id="IR68_CzAtFla6GQySJcf-231" value="" style="ellipse;whiteSpace=wrap;html=1;aspect=fixed;fontSize=11;" parent="IR68_CzAtFla6GQySJcf-201" vertex="1">
          <mxGeometry x="-26.503076923076918" y="105.19285714285714" width="4.615384615384615" height="4.615384615384615" as="geometry" />
        </mxCell>
        <mxCell id="IR68_CzAtFla6GQySJcf-232" value="" style="ellipse;whiteSpace=wrap;html=1;aspect=fixed;fontSize=11;" parent="IR68_CzAtFla6GQySJcf-201" vertex="1">
          <mxGeometry x="-14.583846153846153" y="105.19285714285714" width="4.615384615384615" height="4.615384615384615" as="geometry" />
        </mxCell>
        <mxCell id="IR68_CzAtFla6GQySJcf-233" value="" style="endArrow=classic;html=1;rounded=0;fontSize=11;exitX=0.5;exitY=0;exitDx=0;exitDy=0;entryX=0.5;entryY=1;entryDx=0;entryDy=0;" parent="IR68_CzAtFla6GQySJcf-201" source="IR68_CzAtFla6GQySJcf-231" target="IR68_CzAtFla6GQySJcf-226" edge="1">
          <mxGeometry width="50" height="50" relative="1" as="geometry">
            <mxPoint x="-357.656923076923" y="-169.09285714285716" as="sourcePoint" />
            <mxPoint x="-330.7338461538461" y="-203.37857142857138" as="targetPoint" />
          </mxGeometry>
        </mxCell>
        <mxCell id="IR68_CzAtFla6GQySJcf-234" value="" style="endArrow=classic;html=1;rounded=0;fontSize=11;exitX=0.5;exitY=0;exitDx=0;exitDy=0;entryX=0.5;entryY=1;entryDx=0;entryDy=0;" parent="IR68_CzAtFla6GQySJcf-201" source="IR68_CzAtFla6GQySJcf-232" target="IR68_CzAtFla6GQySJcf-230" edge="1">
          <mxGeometry width="50" height="50" relative="1" as="geometry">
            <mxPoint x="-326.9884615384616" y="-107.37857142857143" as="sourcePoint" />
            <mxPoint x="-326.9884615384616" y="-124.52142857142854" as="targetPoint" />
          </mxGeometry>
        </mxCell>
        <mxCell id="IR68_CzAtFla6GQySJcf-235" value="&lt;font style=&quot;font-size: 9px;&quot; face=&quot;Georgia&quot;&gt;&lt;i&gt;Item &lt;sub&gt;c1&lt;/sub&gt;&lt;/i&gt;&lt;/font&gt;" style="text;html=1;align=center;verticalAlign=middle;whiteSpace=wrap;rounded=0;fontSize=11;" parent="IR68_CzAtFla6GQySJcf-201" vertex="1">
          <mxGeometry x="-51.89" y="105.19000000000001" width="60" height="20.57" as="geometry" />
        </mxCell>
        <mxCell id="IR68_CzAtFla6GQySJcf-238" style="edgeStyle=none;rounded=0;orthogonalLoop=1;jettySize=auto;html=1;exitX=0.5;exitY=0;exitDx=0;exitDy=0;fontFamily=Georgia;fontSize=10;" parent="IR68_CzAtFla6GQySJcf-201" source="IR68_CzAtFla6GQySJcf-222" edge="1">
          <mxGeometry relative="1" as="geometry">
            <mxPoint x="-18.58000000000004" y="10.000000000000227" as="targetPoint" />
          </mxGeometry>
        </mxCell>
        <mxCell id="IR68_CzAtFla6GQySJcf-242" style="edgeStyle=none;rounded=0;orthogonalLoop=1;jettySize=auto;html=1;exitX=0.5;exitY=0;exitDx=0;exitDy=0;fontFamily=Georgia;fontSize=10;" parent="1" source="IR68_CzAtFla6GQySJcf-204" edge="1">
          <mxGeometry relative="1" as="geometry">
            <mxPoint x="589.2299999999999" y="570.8300000000002" as="targetPoint" />
          </mxGeometry>
        </mxCell>
        <mxCell id="IR68_CzAtFla6GQySJcf-247" value="" style="rounded=0;whiteSpace=wrap;html=1;fontSize=22;" parent="1" vertex="1">
          <mxGeometry x="671.996923076923" y="621.4514285714286" width="5.384615384615384" height="6.857142857142857" as="geometry" />
        </mxCell>
        <mxCell id="IR68_CzAtFla6GQySJcf-248" value="" style="rounded=0;whiteSpace=wrap;html=1;fontSize=22;" parent="1" vertex="1">
          <mxGeometry x="671.996923076923" y="628.3085714285714" width="5.384615384615384" height="6.857142857142857" as="geometry" />
        </mxCell>
        <mxCell id="IR68_CzAtFla6GQySJcf-249" value="" style="rounded=0;whiteSpace=wrap;html=1;fontSize=22;" parent="1" vertex="1">
          <mxGeometry x="671.996923076923" y="635.1657142857143" width="5.384615384615384" height="6.857142857142857" as="geometry" />
        </mxCell>
        <mxCell id="IR68_CzAtFla6GQySJcf-250" value="" style="rounded=0;whiteSpace=wrap;html=1;fontSize=22;" parent="1" vertex="1">
          <mxGeometry x="671.996923076923" y="642.0228571428572" width="5.384615384615384" height="6.857142857142857" as="geometry" />
        </mxCell>
        <mxCell id="IR68_CzAtFla6GQySJcf-251" value="" style="rounded=0;whiteSpace=wrap;html=1;fontSize=22;" parent="1" vertex="1">
          <mxGeometry x="683.9161538461539" y="621.4514285714286" width="5.384615384615384" height="6.857142857142857" as="geometry" />
        </mxCell>
        <mxCell id="IR68_CzAtFla6GQySJcf-252" value="" style="rounded=0;whiteSpace=wrap;html=1;fontSize=22;" parent="1" vertex="1">
          <mxGeometry x="683.9161538461539" y="628.3085714285714" width="5.384615384615384" height="6.857142857142857" as="geometry" />
        </mxCell>
        <mxCell id="IR68_CzAtFla6GQySJcf-253" value="" style="rounded=0;whiteSpace=wrap;html=1;fontSize=22;" parent="1" vertex="1">
          <mxGeometry x="683.9161538461539" y="635.1657142857143" width="5.384615384615384" height="10.285714285714285" as="geometry" />
        </mxCell>
        <mxCell id="IR68_CzAtFla6GQySJcf-254" value="" style="rounded=0;whiteSpace=wrap;html=1;fontSize=22;" parent="1" vertex="1">
          <mxGeometry x="683.9161538461539" y="642.0228571428572" width="5.384615384615384" height="6.857142857142857" as="geometry" />
        </mxCell>
        <mxCell id="IR68_CzAtFla6GQySJcf-255" value="" style="ellipse;whiteSpace=wrap;html=1;aspect=fixed;fontSize=11;" parent="1" vertex="1">
          <mxGeometry x="671.996923076923" y="666.0228571428572" width="4.615384615384615" height="4.615384615384615" as="geometry" />
        </mxCell>
        <mxCell id="IR68_CzAtFla6GQySJcf-256" value="" style="ellipse;whiteSpace=wrap;html=1;aspect=fixed;fontSize=11;" parent="1" vertex="1">
          <mxGeometry x="683.9161538461539" y="666.0228571428572" width="4.615384615384615" height="4.615384615384615" as="geometry" />
        </mxCell>
        <mxCell id="IR68_CzAtFla6GQySJcf-257" value="" style="endArrow=classic;html=1;rounded=0;fontSize=11;exitX=0.5;exitY=0;exitDx=0;exitDy=0;entryX=0.5;entryY=1;entryDx=0;entryDy=0;" parent="1" source="IR68_CzAtFla6GQySJcf-255" target="IR68_CzAtFla6GQySJcf-250" edge="1">
          <mxGeometry width="50" height="50" relative="1" as="geometry">
            <mxPoint x="-473.15692307692314" y="-108.26285714285711" as="sourcePoint" />
            <mxPoint x="-446.23384615384623" y="-142.5485714285714" as="targetPoint" />
          </mxGeometry>
        </mxCell>
        <mxCell id="IR68_CzAtFla6GQySJcf-258" value="" style="endArrow=classic;html=1;rounded=0;fontSize=11;exitX=0.5;exitY=0;exitDx=0;exitDy=0;entryX=0.5;entryY=1;entryDx=0;entryDy=0;" parent="1" source="IR68_CzAtFla6GQySJcf-256" target="IR68_CzAtFla6GQySJcf-254" edge="1">
          <mxGeometry width="50" height="50" relative="1" as="geometry">
            <mxPoint x="-442.4884615384617" y="-46.54857142857141" as="sourcePoint" />
            <mxPoint x="-442.4884615384617" y="-63.69142857142853" as="targetPoint" />
          </mxGeometry>
        </mxCell>
        <mxCell id="IR68_CzAtFla6GQySJcf-259" value="&lt;font style=&quot;font-size: 9px;&quot; face=&quot;Georgia&quot;&gt;&lt;i&gt;Item &lt;sub&gt;cN&lt;/sub&gt;&lt;/i&gt;&lt;/font&gt;" style="text;html=1;align=center;verticalAlign=middle;whiteSpace=wrap;rounded=0;fontSize=11;" parent="1" vertex="1">
          <mxGeometry x="648.61" y="666.02" width="60" height="20.57" as="geometry" />
        </mxCell>
        <mxCell id="IR68_CzAtFla6GQySJcf-329" value="&lt;font style=&quot;font-size: 18px;&quot; face=&quot;Times New Roman&quot;&gt;&lt;i style=&quot;&quot;&gt;Loss&lt;sub style=&quot;&quot;&gt;ctr&lt;/sub&gt;&lt;/i&gt;&lt;/font&gt;" style="text;html=1;align=center;verticalAlign=middle;whiteSpace=wrap;rounded=0;" parent="1" vertex="1">
          <mxGeometry x="836.0800000000002" y="57.5" width="57.5" height="30" as="geometry" />
        </mxCell>
        <mxCell id="IR68_CzAtFla6GQySJcf-330" style="edgeStyle=orthogonalEdgeStyle;rounded=0;orthogonalLoop=1;jettySize=auto;html=1;exitX=1;exitY=0.5;exitDx=0;exitDy=0;entryX=0;entryY=0.5;entryDx=0;entryDy=0;fontFamily=Times New Roman;fontColor=#000000;" parent="1" source="IR68_CzAtFla6GQySJcf-331" target="IR68_CzAtFla6GQySJcf-189" edge="1">
          <mxGeometry relative="1" as="geometry" />
        </mxCell>
        <mxCell id="IR68_CzAtFla6GQySJcf-331" value="&lt;font style=&quot;font-size: 14px;&quot; color=&quot;#000000&quot;&gt;点击Label&lt;/font&gt;" style="text;html=1;align=center;verticalAlign=middle;whiteSpace=wrap;rounded=0;" parent="1" vertex="1">
          <mxGeometry x="741.8100000000001" y="95" width="70" height="30" as="geometry" />
        </mxCell>
        <mxCell id="IR68_CzAtFla6GQySJcf-332" style="edgeStyle=orthogonalEdgeStyle;rounded=0;orthogonalLoop=1;jettySize=auto;html=1;exitX=1;exitY=0.5;exitDx=0;exitDy=0;fontFamily=Times New Roman;fontColor=#000000;" parent="1" source="IR68_CzAtFla6GQySJcf-333" edge="1">
          <mxGeometry relative="1" as="geometry">
            <mxPoint x="977.8100000000002" y="40" as="targetPoint" />
          </mxGeometry>
        </mxCell>
        <mxCell id="IR68_CzAtFla6GQySJcf-333" value="&lt;font style=&quot;font-size: 14px;&quot; color=&quot;#000000&quot;&gt;购买Label&lt;/font&gt;" style="text;html=1;align=center;verticalAlign=middle;whiteSpace=wrap;rounded=0;" parent="1" vertex="1">
          <mxGeometry x="861.8100000000002" y="22.5" width="70" height="35" as="geometry" />
        </mxCell>
        <mxCell id="IR68_CzAtFla6GQySJcf-334" style="edgeStyle=orthogonalEdgeStyle;rounded=0;orthogonalLoop=1;jettySize=auto;html=1;exitX=0.5;exitY=0;exitDx=0;exitDy=0;fontFamily=Times New Roman;fontColor=#FF0000;" parent="1" source="IR68_CzAtFla6GQySJcf-335" edge="1">
          <mxGeometry relative="1" as="geometry">
            <mxPoint x="990.6281818181817" y="10" as="targetPoint" />
          </mxGeometry>
        </mxCell>
        <mxCell id="IR68_CzAtFla6GQySJcf-335" value="" style="ellipse;whiteSpace=wrap;html=1;aspect=fixed;" parent="1" vertex="1">
          <mxGeometry x="980.3100000000002" y="30" width="20" height="20" as="geometry" />
        </mxCell>
        <mxCell id="IR68_CzAtFla6GQySJcf-336" value="&lt;font style=&quot;font-size: 18px;&quot; face=&quot;Times New Roman&quot;&gt;&lt;i style=&quot;&quot;&gt;Loss&lt;sub style=&quot;&quot;&gt;ctvr&lt;/sub&gt;&lt;/i&gt;&lt;/font&gt;" style="text;html=1;align=center;verticalAlign=middle;whiteSpace=wrap;rounded=0;" parent="1" vertex="1">
          <mxGeometry x="964.3100000000002" y="-20" width="57.5" height="30" as="geometry" />
        </mxCell>
        <mxCell id="IR68_CzAtFla6GQySJcf-356" value="" style="shape=sumEllipse;perimeter=ellipsePerimeter;whiteSpace=wrap;html=1;backgroundOutline=1;fontFamily=Times New Roman;" parent="1" vertex="1">
          <mxGeometry x="980.3100000000002" y="70" width="20" height="20" as="geometry" />
        </mxCell>
        <mxCell id="IR68_CzAtFla6GQySJcf-393" value="" style="shape=curlyBracket;whiteSpace=wrap;html=1;rounded=1;flipH=1;fontSize=22;rotation=-90;size=0.5;" parent="1" vertex="1">
          <mxGeometry x="1140" y="558.5900000000001" width="20" height="50" as="geometry" />
        </mxCell>
        <mxCell id="IR68_CzAtFla6GQySJcf-394" value="&lt;font style=&quot;font-size: 11px;&quot;&gt;concat&lt;/font&gt;" style="rounded=1;whiteSpace=wrap;html=1;fontSize=11;" parent="1" vertex="1">
          <mxGeometry x="1127.5" y="548.5900000000001" width="45" height="20" as="geometry" />
        </mxCell>
        <mxCell id="IR68_CzAtFla6GQySJcf-395" value="" style="group" parent="1" vertex="1" connectable="0">
          <mxGeometry x="1132.5" y="525.5900000000001" width="40" height="10" as="geometry" />
        </mxCell>
        <mxCell id="IR68_CzAtFla6GQySJcf-396" value="" style="rounded=0;whiteSpace=wrap;html=1;fontSize=22;" parent="IR68_CzAtFla6GQySJcf-395" vertex="1">
          <mxGeometry width="10" height="10" as="geometry" />
        </mxCell>
        <mxCell id="IR68_CzAtFla6GQySJcf-397" style="edgeStyle=none;rounded=0;orthogonalLoop=1;jettySize=auto;html=1;exitX=1;exitY=1;exitDx=0;exitDy=0;fontSize=22;" parent="IR68_CzAtFla6GQySJcf-395" source="IR68_CzAtFla6GQySJcf-396" target="IR68_CzAtFla6GQySJcf-396" edge="1">
          <mxGeometry relative="1" as="geometry" />
        </mxCell>
        <mxCell id="IR68_CzAtFla6GQySJcf-398" value="" style="rounded=0;whiteSpace=wrap;html=1;fontSize=22;" parent="IR68_CzAtFla6GQySJcf-395" vertex="1">
          <mxGeometry x="10" width="10" height="10" as="geometry" />
        </mxCell>
        <mxCell id="IR68_CzAtFla6GQySJcf-399" value="" style="rounded=0;whiteSpace=wrap;html=1;fontSize=22;" parent="IR68_CzAtFla6GQySJcf-395" vertex="1">
          <mxGeometry x="20" width="10" height="10" as="geometry" />
        </mxCell>
        <mxCell id="IR68_CzAtFla6GQySJcf-400" value="" style="rounded=0;whiteSpace=wrap;html=1;fontSize=22;" parent="IR68_CzAtFla6GQySJcf-395" vertex="1">
          <mxGeometry x="30" width="10" height="10" as="geometry" />
        </mxCell>
        <mxCell id="IR68_CzAtFla6GQySJcf-401" value="" style="rounded=0;whiteSpace=wrap;html=1;fontSize=22;" parent="1" vertex="1">
          <mxGeometry x="1135" y="593.5900000000001" width="10" height="10" as="geometry" />
        </mxCell>
        <mxCell id="IR68_CzAtFla6GQySJcf-402" value="" style="rounded=0;whiteSpace=wrap;html=1;fontSize=22;" parent="1" vertex="1">
          <mxGeometry x="1135" y="603.5900000000001" width="10" height="10" as="geometry" />
        </mxCell>
        <mxCell id="IR68_CzAtFla6GQySJcf-403" value="" style="rounded=0;whiteSpace=wrap;html=1;fontSize=22;" parent="1" vertex="1">
          <mxGeometry x="1135" y="613.5900000000001" width="10" height="10" as="geometry" />
        </mxCell>
        <mxCell id="IR68_CzAtFla6GQySJcf-404" value="" style="rounded=0;whiteSpace=wrap;html=1;fontSize=22;" parent="1" vertex="1">
          <mxGeometry x="1135" y="623.5900000000001" width="10" height="10" as="geometry" />
        </mxCell>
        <mxCell id="IR68_CzAtFla6GQySJcf-405" value="" style="rounded=0;whiteSpace=wrap;html=1;fontSize=22;" parent="1" vertex="1">
          <mxGeometry x="1155" y="593.5900000000001" width="10" height="10" as="geometry" />
        </mxCell>
        <mxCell id="IR68_CzAtFla6GQySJcf-406" value="" style="rounded=0;whiteSpace=wrap;html=1;fontSize=22;" parent="1" vertex="1">
          <mxGeometry x="1155" y="603.5900000000001" width="10" height="10" as="geometry" />
        </mxCell>
        <mxCell id="IR68_CzAtFla6GQySJcf-407" value="" style="rounded=0;whiteSpace=wrap;html=1;fontSize=22;" parent="1" vertex="1">
          <mxGeometry x="1155" y="613.5900000000001" width="10" height="15" as="geometry" />
        </mxCell>
        <mxCell id="IR68_CzAtFla6GQySJcf-408" value="" style="rounded=0;whiteSpace=wrap;html=1;fontSize=22;" parent="1" vertex="1">
          <mxGeometry x="1155" y="623.5900000000001" width="10" height="10" as="geometry" />
        </mxCell>
        <mxCell id="IR68_CzAtFla6GQySJcf-409" value="" style="ellipse;whiteSpace=wrap;html=1;aspect=fixed;fontSize=11;" parent="1" vertex="1">
          <mxGeometry x="1135" y="658.5900000000001" width="10" height="10" as="geometry" />
        </mxCell>
        <mxCell id="IR68_CzAtFla6GQySJcf-410" value="" style="ellipse;whiteSpace=wrap;html=1;aspect=fixed;fontSize=11;" parent="1" vertex="1">
          <mxGeometry x="1155" y="658.5900000000001" width="10" height="10" as="geometry" />
        </mxCell>
        <mxCell id="IR68_CzAtFla6GQySJcf-411" value="" style="endArrow=classic;html=1;rounded=0;fontSize=11;exitX=0.5;exitY=0;exitDx=0;exitDy=0;entryX=0.5;entryY=1;entryDx=0;entryDy=0;" parent="1" source="IR68_CzAtFla6GQySJcf-409" target="IR68_CzAtFla6GQySJcf-404" edge="1">
          <mxGeometry width="50" height="50" relative="1" as="geometry">
            <mxPoint x="1105" y="568.5900000000001" as="sourcePoint" />
            <mxPoint x="1155" y="518.5900000000001" as="targetPoint" />
          </mxGeometry>
        </mxCell>
        <mxCell id="IR68_CzAtFla6GQySJcf-412" value="" style="endArrow=classic;html=1;rounded=0;fontSize=11;exitX=0.5;exitY=0;exitDx=0;exitDy=0;entryX=0.5;entryY=1;entryDx=0;entryDy=0;" parent="1" source="IR68_CzAtFla6GQySJcf-410" target="IR68_CzAtFla6GQySJcf-408" edge="1">
          <mxGeometry width="50" height="50" relative="1" as="geometry">
            <mxPoint x="1159.82" y="658.5900000000001" as="sourcePoint" />
            <mxPoint x="1159.82" y="633.5900000000001" as="targetPoint" />
          </mxGeometry>
        </mxCell>
        <mxCell id="IR68_CzAtFla6GQySJcf-413" value="Item&lt;br&gt;Features" style="text;html=1;align=center;verticalAlign=middle;whiteSpace=wrap;rounded=0;fontSize=11;" parent="1" vertex="1">
          <mxGeometry x="1120" y="673.5900000000001" width="65" height="30" as="geometry" />
        </mxCell>
        <mxCell id="IR68_CzAtFla6GQySJcf-414" value="" style="group" parent="1" vertex="1" connectable="0">
          <mxGeometry x="757.9223076923076" y="560.8299999999999" width="40" height="44.57142857142857" as="geometry" />
        </mxCell>
        <mxCell id="IR68_CzAtFla6GQySJcf-415" value="" style="shape=curlyBracket;whiteSpace=wrap;html=1;rounded=1;flipH=1;fontSize=22;rotation=-90;size=0.5;" parent="IR68_CzAtFla6GQySJcf-414" vertex="1">
          <mxGeometry x="18.076923076923077" y="36.62142857142857" width="10.769230769230768" height="34.285714285714285" as="geometry" />
        </mxCell>
        <mxCell id="IR68_CzAtFla6GQySJcf-416" value="&lt;font style=&quot;font-size: 11px;&quot;&gt;concat&lt;/font&gt;" style="rounded=1;whiteSpace=wrap;html=1;fontSize=11;" parent="IR68_CzAtFla6GQySJcf-414" vertex="1">
          <mxGeometry x="4.14" y="36.05" width="38.65" height="10.43" as="geometry" />
        </mxCell>
        <mxCell id="eDhHdD21VxhMocc9II1k-329" style="edgeStyle=none;rounded=0;orthogonalLoop=1;jettySize=auto;html=1;exitX=0.5;exitY=0;exitDx=0;exitDy=0;fontFamily=Georgia;fontSize=10;" parent="IR68_CzAtFla6GQySJcf-414" edge="1">
          <mxGeometry relative="1" as="geometry">
            <mxPoint x="23.45769230769224" y="9.880000000000223" as="targetPoint" />
            <mxPoint x="23.227692307692337" y="36.05000000000007" as="sourcePoint" />
          </mxGeometry>
        </mxCell>
        <mxCell id="IR68_CzAtFla6GQySJcf-417" value="" style="rounded=0;whiteSpace=wrap;html=1;fontSize=22;" parent="1" vertex="1">
          <mxGeometry x="773.306923076923" y="621.4514285714286" width="5.384615384615384" height="6.857142857142857" as="geometry" />
        </mxCell>
        <mxCell id="IR68_CzAtFla6GQySJcf-418" value="" style="rounded=0;whiteSpace=wrap;html=1;fontSize=22;" parent="1" vertex="1">
          <mxGeometry x="773.306923076923" y="628.3085714285713" width="5.384615384615384" height="6.857142857142857" as="geometry" />
        </mxCell>
        <mxCell id="IR68_CzAtFla6GQySJcf-419" value="" style="rounded=0;whiteSpace=wrap;html=1;fontSize=22;" parent="1" vertex="1">
          <mxGeometry x="773.306923076923" y="635.1657142857142" width="5.384615384615384" height="6.857142857142857" as="geometry" />
        </mxCell>
        <mxCell id="IR68_CzAtFla6GQySJcf-420" value="" style="rounded=0;whiteSpace=wrap;html=1;fontSize=22;" parent="1" vertex="1">
          <mxGeometry x="773.306923076923" y="642.0228571428571" width="5.384615384615384" height="6.857142857142857" as="geometry" />
        </mxCell>
        <mxCell id="IR68_CzAtFla6GQySJcf-421" value="" style="rounded=0;whiteSpace=wrap;html=1;fontSize=22;" parent="1" vertex="1">
          <mxGeometry x="785.2261538461538" y="621.4514285714286" width="5.384615384615384" height="6.857142857142857" as="geometry" />
        </mxCell>
        <mxCell id="IR68_CzAtFla6GQySJcf-422" value="" style="rounded=0;whiteSpace=wrap;html=1;fontSize=22;" parent="1" vertex="1">
          <mxGeometry x="785.2261538461538" y="628.3085714285713" width="5.384615384615384" height="6.857142857142857" as="geometry" />
        </mxCell>
        <mxCell id="IR68_CzAtFla6GQySJcf-423" value="" style="rounded=0;whiteSpace=wrap;html=1;fontSize=22;" parent="1" vertex="1">
          <mxGeometry x="785.2261538461538" y="635.1657142857142" width="5.384615384615384" height="10.285714285714285" as="geometry" />
        </mxCell>
        <mxCell id="IR68_CzAtFla6GQySJcf-424" value="" style="rounded=0;whiteSpace=wrap;html=1;fontSize=22;" parent="1" vertex="1">
          <mxGeometry x="785.2261538461538" y="642.0228571428571" width="5.384615384615384" height="6.857142857142857" as="geometry" />
        </mxCell>
        <mxCell id="IR68_CzAtFla6GQySJcf-425" value="" style="ellipse;whiteSpace=wrap;html=1;aspect=fixed;fontSize=11;" parent="1" vertex="1">
          <mxGeometry x="773.306923076923" y="666.0228571428571" width="4.615384615384615" height="4.615384615384615" as="geometry" />
        </mxCell>
        <mxCell id="IR68_CzAtFla6GQySJcf-426" value="" style="ellipse;whiteSpace=wrap;html=1;aspect=fixed;fontSize=11;" parent="1" vertex="1">
          <mxGeometry x="785.2261538461538" y="666.0228571428571" width="4.615384615384615" height="4.615384615384615" as="geometry" />
        </mxCell>
        <mxCell id="IR68_CzAtFla6GQySJcf-427" value="" style="endArrow=classic;html=1;rounded=0;fontSize=11;exitX=0.5;exitY=0;exitDx=0;exitDy=0;entryX=0.5;entryY=1;entryDx=0;entryDy=0;" parent="1" source="IR68_CzAtFla6GQySJcf-425" target="IR68_CzAtFla6GQySJcf-420" edge="1">
          <mxGeometry width="50" height="50" relative="1" as="geometry">
            <mxPoint x="442.1530769230769" y="391.73714285714277" as="sourcePoint" />
            <mxPoint x="469.07615384615383" y="357.45142857142855" as="targetPoint" />
          </mxGeometry>
        </mxCell>
        <mxCell id="IR68_CzAtFla6GQySJcf-428" value="" style="endArrow=classic;html=1;rounded=0;fontSize=11;exitX=0.5;exitY=0;exitDx=0;exitDy=0;entryX=0.5;entryY=1;entryDx=0;entryDy=0;" parent="1" source="IR68_CzAtFla6GQySJcf-426" target="IR68_CzAtFla6GQySJcf-424" edge="1">
          <mxGeometry width="50" height="50" relative="1" as="geometry">
            <mxPoint x="472.82153846153835" y="453.4514285714285" as="sourcePoint" />
            <mxPoint x="472.82153846153835" y="436.3085714285714" as="targetPoint" />
          </mxGeometry>
        </mxCell>
        <mxCell id="IR68_CzAtFla6GQySJcf-429" value="&lt;font style=&quot;font-size: 9px;&quot; face=&quot;Georgia&quot;&gt;&lt;i&gt;Item &lt;sub&gt;s1&lt;/sub&gt;&lt;/i&gt;&lt;/font&gt;" style="text;html=1;align=center;verticalAlign=middle;whiteSpace=wrap;rounded=0;fontSize=11;" parent="1" vertex="1">
          <mxGeometry x="747.92" y="666.02" width="60" height="20.57" as="geometry" />
        </mxCell>
        <mxCell id="IR68_CzAtFla6GQySJcf-6" value="&lt;font style=&quot;font-size: 22px;&quot;&gt;……&lt;/font&gt;" style="text;html=1;align=center;verticalAlign=middle;whiteSpace=wrap;rounded=0;fontFamily=Georgia;fontSize=11;" parent="1" vertex="1">
          <mxGeometry x="606.75" y="619.1800000000001" width="60" height="30" as="geometry" />
        </mxCell>
        <mxCell id="IR68_CzAtFla6GQySJcf-9" value="" style="group;fontStyle=1" parent="1" vertex="1" connectable="0">
          <mxGeometry x="630" y="410" width="80" height="10" as="geometry" />
        </mxCell>
        <mxCell id="IR68_CzAtFla6GQySJcf-10" value="" style="group;fontStyle=1" parent="IR68_CzAtFla6GQySJcf-9" vertex="1" connectable="0">
          <mxGeometry width="40" height="10" as="geometry" />
        </mxCell>
        <mxCell id="IR68_CzAtFla6GQySJcf-11" value="" style="rounded=0;whiteSpace=wrap;html=1;fontSize=22;fontStyle=1" parent="IR68_CzAtFla6GQySJcf-10" vertex="1">
          <mxGeometry width="10" height="10" as="geometry" />
        </mxCell>
        <mxCell id="IR68_CzAtFla6GQySJcf-12" style="edgeStyle=none;rounded=0;orthogonalLoop=1;jettySize=auto;html=1;exitX=1;exitY=1;exitDx=0;exitDy=0;fontSize=22;fontStyle=1" parent="IR68_CzAtFla6GQySJcf-10" edge="1">
          <mxGeometry relative="1" as="geometry">
            <mxPoint x="20" y="60.00000000000023" as="sourcePoint" />
            <mxPoint x="20" y="60.00000000000023" as="targetPoint" />
          </mxGeometry>
        </mxCell>
        <mxCell id="IR68_CzAtFla6GQySJcf-13" value="" style="rounded=0;whiteSpace=wrap;html=1;fontSize=22;fontStyle=1" parent="IR68_CzAtFla6GQySJcf-10" vertex="1">
          <mxGeometry x="10" width="10" height="10" as="geometry" />
        </mxCell>
        <mxCell id="IR68_CzAtFla6GQySJcf-14" value="" style="rounded=0;whiteSpace=wrap;html=1;fontSize=22;fontStyle=1" parent="IR68_CzAtFla6GQySJcf-10" vertex="1">
          <mxGeometry x="20" width="10" height="10" as="geometry" />
        </mxCell>
        <mxCell id="IR68_CzAtFla6GQySJcf-15" value="" style="rounded=0;whiteSpace=wrap;html=1;fontSize=22;fontStyle=1" parent="IR68_CzAtFla6GQySJcf-10" vertex="1">
          <mxGeometry x="30" width="10" height="10" as="geometry" />
        </mxCell>
        <mxCell id="IR68_CzAtFla6GQySJcf-16" value="" style="group;fontStyle=1" parent="IR68_CzAtFla6GQySJcf-9" vertex="1" connectable="0">
          <mxGeometry x="40" width="40" height="10" as="geometry" />
        </mxCell>
        <mxCell id="IR68_CzAtFla6GQySJcf-17" value="" style="rounded=0;whiteSpace=wrap;html=1;fontSize=22;fontStyle=1" parent="IR68_CzAtFla6GQySJcf-16" vertex="1">
          <mxGeometry width="10" height="10" as="geometry" />
        </mxCell>
        <mxCell id="IR68_CzAtFla6GQySJcf-18" style="edgeStyle=none;rounded=0;orthogonalLoop=1;jettySize=auto;html=1;exitX=1;exitY=1;exitDx=0;exitDy=0;fontSize=22;fontStyle=1" parent="IR68_CzAtFla6GQySJcf-16" edge="1">
          <mxGeometry relative="1" as="geometry">
            <mxPoint x="20" y="60.00000000000023" as="sourcePoint" />
            <mxPoint x="20" y="60.00000000000023" as="targetPoint" />
          </mxGeometry>
        </mxCell>
        <mxCell id="IR68_CzAtFla6GQySJcf-19" value="" style="rounded=0;whiteSpace=wrap;html=1;fontSize=22;fontStyle=1" parent="IR68_CzAtFla6GQySJcf-16" vertex="1">
          <mxGeometry x="10" width="10" height="10" as="geometry" />
        </mxCell>
        <mxCell id="IR68_CzAtFla6GQySJcf-20" value="" style="rounded=0;whiteSpace=wrap;html=1;fontSize=22;fontStyle=1" parent="IR68_CzAtFla6GQySJcf-16" vertex="1">
          <mxGeometry x="20" width="10" height="10" as="geometry" />
        </mxCell>
        <mxCell id="IR68_CzAtFla6GQySJcf-21" value="" style="rounded=0;whiteSpace=wrap;html=1;fontSize=22;fontStyle=1" parent="IR68_CzAtFla6GQySJcf-16" vertex="1">
          <mxGeometry x="30" width="10" height="10" as="geometry" />
        </mxCell>
        <mxCell id="IR68_CzAtFla6GQySJcf-39" value="&lt;font face=&quot;Helvetica&quot;&gt;&lt;span style=&quot;font-size: 12px;&quot;&gt;&lt;b&gt;负向序列-用户曝光未点击店铺序列&lt;/b&gt;&lt;/span&gt;&lt;/font&gt;" style="text;html=1;align=center;verticalAlign=middle;whiteSpace=wrap;rounded=0;dashed=1;fontFamily=Georgia;fontSize=22;" parent="1" vertex="1">
          <mxGeometry x="471.91999999999985" y="690.0000000000001" width="256" height="30" as="geometry" />
        </mxCell>
        <mxCell id="eDhHdD21VxhMocc9II1k-287" style="edgeStyle=orthogonalEdgeStyle;rounded=0;orthogonalLoop=1;jettySize=auto;html=1;exitX=0.5;exitY=0;exitDx=0;exitDy=0;entryX=0.25;entryY=1;entryDx=0;entryDy=0;" parent="1" source="eDhHdD21VxhMocc9II1k-95" target="eDhHdD21VxhMocc9II1k-187" edge="1">
          <mxGeometry relative="1" as="geometry">
            <Array as="points">
              <mxPoint x="155.45000000000005" y="352.27" />
              <mxPoint x="253.45000000000005" y="352.27" />
            </Array>
          </mxGeometry>
        </mxCell>
        <mxCell id="eDhHdD21VxhMocc9II1k-139" value="" style="group" parent="1" vertex="1" connectable="0">
          <mxGeometry x="214.14230769230767" y="392.26999999999987" width="40" height="44.57142857142857" as="geometry" />
        </mxCell>
        <mxCell id="eDhHdD21VxhMocc9II1k-140" value="" style="shape=curlyBracket;whiteSpace=wrap;html=1;rounded=1;flipH=1;fontSize=22;rotation=-90;size=0.5;" parent="eDhHdD21VxhMocc9II1k-139" vertex="1">
          <mxGeometry x="18.076923076923077" y="36.62142857142857" width="10.769230769230768" height="34.285714285714285" as="geometry" />
        </mxCell>
        <mxCell id="eDhHdD21VxhMocc9II1k-141" value="&lt;font style=&quot;font-size: 11px;&quot;&gt;concat&lt;/font&gt;" style="rounded=1;whiteSpace=wrap;html=1;fontSize=11;" parent="eDhHdD21VxhMocc9II1k-139" vertex="1">
          <mxGeometry x="4.14" y="36.05" width="38.65" height="10.43" as="geometry" />
        </mxCell>
        <mxCell id="eDhHdD21VxhMocc9II1k-142" value="" style="rounded=0;whiteSpace=wrap;html=1;fontSize=22;" parent="1" vertex="1">
          <mxGeometry x="229.52692307692303" y="452.8914285714285" width="5.384615384615384" height="6.857142857142857" as="geometry" />
        </mxCell>
        <mxCell id="eDhHdD21VxhMocc9II1k-143" value="" style="rounded=0;whiteSpace=wrap;html=1;fontSize=22;" parent="1" vertex="1">
          <mxGeometry x="229.52692307692303" y="459.7485714285714" width="5.384615384615384" height="6.857142857142857" as="geometry" />
        </mxCell>
        <mxCell id="eDhHdD21VxhMocc9II1k-144" value="" style="rounded=0;whiteSpace=wrap;html=1;fontSize=22;" parent="1" vertex="1">
          <mxGeometry x="229.52692307692303" y="466.60571428571427" width="5.384615384615384" height="6.857142857142857" as="geometry" />
        </mxCell>
        <mxCell id="eDhHdD21VxhMocc9II1k-145" value="" style="rounded=0;whiteSpace=wrap;html=1;fontSize=22;" parent="1" vertex="1">
          <mxGeometry x="229.52692307692303" y="473.46285714285716" width="5.384615384615384" height="6.857142857142857" as="geometry" />
        </mxCell>
        <mxCell id="eDhHdD21VxhMocc9II1k-146" value="" style="rounded=0;whiteSpace=wrap;html=1;fontSize=22;" parent="1" vertex="1">
          <mxGeometry x="241.44615384615383" y="452.8914285714285" width="5.384615384615384" height="6.857142857142857" as="geometry" />
        </mxCell>
        <mxCell id="eDhHdD21VxhMocc9II1k-147" value="" style="rounded=0;whiteSpace=wrap;html=1;fontSize=22;" parent="1" vertex="1">
          <mxGeometry x="241.44615384615383" y="459.7485714285714" width="5.384615384615384" height="6.857142857142857" as="geometry" />
        </mxCell>
        <mxCell id="eDhHdD21VxhMocc9II1k-148" value="" style="rounded=0;whiteSpace=wrap;html=1;fontSize=22;" parent="1" vertex="1">
          <mxGeometry x="241.44615384615383" y="466.60571428571427" width="5.384615384615384" height="10.285714285714285" as="geometry" />
        </mxCell>
        <mxCell id="eDhHdD21VxhMocc9II1k-149" value="" style="rounded=0;whiteSpace=wrap;html=1;fontSize=22;" parent="1" vertex="1">
          <mxGeometry x="241.44615384615383" y="473.46285714285716" width="5.384615384615384" height="6.857142857142857" as="geometry" />
        </mxCell>
        <mxCell id="eDhHdD21VxhMocc9II1k-150" value="" style="ellipse;whiteSpace=wrap;html=1;aspect=fixed;fontSize=11;" parent="1" vertex="1">
          <mxGeometry x="229.52692307692303" y="497.46285714285716" width="4.615384615384615" height="4.615384615384615" as="geometry" />
        </mxCell>
        <mxCell id="eDhHdD21VxhMocc9II1k-151" value="" style="ellipse;whiteSpace=wrap;html=1;aspect=fixed;fontSize=11;" parent="1" vertex="1">
          <mxGeometry x="241.44615384615383" y="497.46285714285716" width="4.615384615384615" height="4.615384615384615" as="geometry" />
        </mxCell>
        <mxCell id="eDhHdD21VxhMocc9II1k-152" value="" style="endArrow=classic;html=1;rounded=0;fontSize=11;exitX=0.5;exitY=0;exitDx=0;exitDy=0;entryX=0.5;entryY=1;entryDx=0;entryDy=0;" parent="1" source="eDhHdD21VxhMocc9II1k-150" target="eDhHdD21VxhMocc9II1k-145" edge="1">
          <mxGeometry width="50" height="50" relative="1" as="geometry">
            <mxPoint x="-915.6269230769233" y="-276.8228571428573" as="sourcePoint" />
            <mxPoint x="-888.7038461538464" y="-311.1085714285715" as="targetPoint" />
          </mxGeometry>
        </mxCell>
        <mxCell id="eDhHdD21VxhMocc9II1k-153" value="" style="endArrow=classic;html=1;rounded=0;fontSize=11;exitX=0.5;exitY=0;exitDx=0;exitDy=0;entryX=0.5;entryY=1;entryDx=0;entryDy=0;" parent="1" source="eDhHdD21VxhMocc9II1k-151" target="eDhHdD21VxhMocc9II1k-149" edge="1">
          <mxGeometry width="50" height="50" relative="1" as="geometry">
            <mxPoint x="-884.9584615384617" y="-215.10857142857148" as="sourcePoint" />
            <mxPoint x="-884.9584615384617" y="-232.2514285714286" as="targetPoint" />
          </mxGeometry>
        </mxCell>
        <mxCell id="eDhHdD21VxhMocc9II1k-154" value="&lt;font style=&quot;font-size: 9px;&quot; face=&quot;Georgia&quot;&gt;&lt;i&gt;Item &lt;sub&gt;cN&lt;/sub&gt;&lt;/i&gt;&lt;/font&gt;" style="text;html=1;align=center;verticalAlign=middle;whiteSpace=wrap;rounded=0;fontSize=11;" parent="1" vertex="1">
          <mxGeometry x="206.14" y="497.4599999999999" width="60" height="20.57" as="geometry" />
        </mxCell>
        <mxCell id="eDhHdD21VxhMocc9II1k-157" style="edgeStyle=none;rounded=0;orthogonalLoop=1;jettySize=auto;html=1;exitX=0.5;exitY=0;exitDx=0;exitDy=0;fontFamily=Georgia;fontSize=10;" parent="1" source="eDhHdD21VxhMocc9II1k-141" edge="1">
          <mxGeometry relative="1" as="geometry">
            <mxPoint x="237.44999999999993" y="402.2700000000001" as="targetPoint" />
          </mxGeometry>
        </mxCell>
        <mxCell id="eDhHdD21VxhMocc9II1k-166" value="&lt;font style=&quot;font-size: 22px;&quot;&gt;……&lt;/font&gt;" style="text;html=1;align=center;verticalAlign=middle;whiteSpace=wrap;rounded=0;fontFamily=Georgia;fontSize=11;" parent="1" vertex="1">
          <mxGeometry x="164.27999999999997" y="450.62" width="60" height="30" as="geometry" />
        </mxCell>
        <mxCell id="eDhHdD21VxhMocc9II1k-97" value="" style="group" parent="1" vertex="1" connectable="0">
          <mxGeometry x="123.45230769230761" y="392.26999999999987" width="40" height="44.57142857142857" as="geometry" />
        </mxCell>
        <mxCell id="eDhHdD21VxhMocc9II1k-98" value="" style="shape=curlyBracket;whiteSpace=wrap;html=1;rounded=1;flipH=1;fontSize=22;rotation=-90;size=0.5;" parent="eDhHdD21VxhMocc9II1k-97" vertex="1">
          <mxGeometry x="18.076923076923077" y="36.62142857142857" width="10.769230769230768" height="34.285714285714285" as="geometry" />
        </mxCell>
        <mxCell id="eDhHdD21VxhMocc9II1k-99" value="&lt;font style=&quot;font-size: 11px;&quot;&gt;concat&lt;/font&gt;" style="rounded=1;whiteSpace=wrap;html=1;fontSize=11;" parent="eDhHdD21VxhMocc9II1k-97" vertex="1">
          <mxGeometry x="4.14" y="36.05" width="38.65" height="10.43" as="geometry" />
        </mxCell>
        <mxCell id="eDhHdD21VxhMocc9II1k-186" style="edgeStyle=none;rounded=0;orthogonalLoop=1;jettySize=auto;html=1;exitX=0.5;exitY=0;exitDx=0;exitDy=0;fontFamily=Georgia;fontSize=10;" parent="eDhHdD21VxhMocc9II1k-97" edge="1">
          <mxGeometry relative="1" as="geometry">
            <mxPoint x="23.16769230769225" y="10.300000000000239" as="targetPoint" />
            <mxPoint x="23.747692307692404" y="36.620000000000175" as="sourcePoint" />
          </mxGeometry>
        </mxCell>
        <mxCell id="eDhHdD21VxhMocc9II1k-100" value="" style="rounded=0;whiteSpace=wrap;html=1;fontSize=22;" parent="1" vertex="1">
          <mxGeometry x="138.83692307692303" y="452.8914285714284" width="5.384615384615384" height="6.857142857142857" as="geometry" />
        </mxCell>
        <mxCell id="eDhHdD21VxhMocc9II1k-101" value="" style="rounded=0;whiteSpace=wrap;html=1;fontSize=22;" parent="1" vertex="1">
          <mxGeometry x="138.83692307692303" y="459.74857142857127" width="5.384615384615384" height="6.857142857142857" as="geometry" />
        </mxCell>
        <mxCell id="eDhHdD21VxhMocc9II1k-102" value="" style="rounded=0;whiteSpace=wrap;html=1;fontSize=22;" parent="1" vertex="1">
          <mxGeometry x="138.83692307692303" y="466.60571428571416" width="5.384615384615384" height="6.857142857142857" as="geometry" />
        </mxCell>
        <mxCell id="eDhHdD21VxhMocc9II1k-103" value="" style="rounded=0;whiteSpace=wrap;html=1;fontSize=22;" parent="1" vertex="1">
          <mxGeometry x="138.83692307692303" y="473.46285714285705" width="5.384615384615384" height="6.857142857142857" as="geometry" />
        </mxCell>
        <mxCell id="eDhHdD21VxhMocc9II1k-104" value="" style="rounded=0;whiteSpace=wrap;html=1;fontSize=22;" parent="1" vertex="1">
          <mxGeometry x="150.75615384615378" y="452.8914285714284" width="5.384615384615384" height="6.857142857142857" as="geometry" />
        </mxCell>
        <mxCell id="eDhHdD21VxhMocc9II1k-105" value="" style="rounded=0;whiteSpace=wrap;html=1;fontSize=22;" parent="1" vertex="1">
          <mxGeometry x="150.75615384615378" y="459.74857142857127" width="5.384615384615384" height="6.857142857142857" as="geometry" />
        </mxCell>
        <mxCell id="eDhHdD21VxhMocc9II1k-106" value="" style="rounded=0;whiteSpace=wrap;html=1;fontSize=22;" parent="1" vertex="1">
          <mxGeometry x="150.75615384615378" y="466.60571428571416" width="5.384615384615384" height="10.285714285714285" as="geometry" />
        </mxCell>
        <mxCell id="eDhHdD21VxhMocc9II1k-107" value="" style="rounded=0;whiteSpace=wrap;html=1;fontSize=22;" parent="1" vertex="1">
          <mxGeometry x="150.75615384615378" y="473.46285714285705" width="5.384615384615384" height="6.857142857142857" as="geometry" />
        </mxCell>
        <mxCell id="eDhHdD21VxhMocc9II1k-108" value="" style="ellipse;whiteSpace=wrap;html=1;aspect=fixed;fontSize=11;" parent="1" vertex="1">
          <mxGeometry x="138.83692307692303" y="497.46285714285705" width="4.615384615384615" height="4.615384615384615" as="geometry" />
        </mxCell>
        <mxCell id="eDhHdD21VxhMocc9II1k-109" value="" style="ellipse;whiteSpace=wrap;html=1;aspect=fixed;fontSize=11;" parent="1" vertex="1">
          <mxGeometry x="150.75615384615378" y="497.46285714285705" width="4.615384615384615" height="4.615384615384615" as="geometry" />
        </mxCell>
        <mxCell id="eDhHdD21VxhMocc9II1k-110" value="" style="endArrow=classic;html=1;rounded=0;fontSize=11;exitX=0.5;exitY=0;exitDx=0;exitDy=0;entryX=0.5;entryY=1;entryDx=0;entryDy=0;" parent="1" source="eDhHdD21VxhMocc9II1k-108" target="eDhHdD21VxhMocc9II1k-103" edge="1">
          <mxGeometry width="50" height="50" relative="1" as="geometry">
            <mxPoint x="-192.3169230769231" y="223.17714285714268" as="sourcePoint" />
            <mxPoint x="-165.3938461538462" y="188.89142857142846" as="targetPoint" />
          </mxGeometry>
        </mxCell>
        <mxCell id="eDhHdD21VxhMocc9II1k-111" value="" style="endArrow=classic;html=1;rounded=0;fontSize=11;exitX=0.5;exitY=0;exitDx=0;exitDy=0;entryX=0.5;entryY=1;entryDx=0;entryDy=0;" parent="1" source="eDhHdD21VxhMocc9II1k-109" target="eDhHdD21VxhMocc9II1k-107" edge="1">
          <mxGeometry width="50" height="50" relative="1" as="geometry">
            <mxPoint x="-161.64846153846167" y="284.8914285714284" as="sourcePoint" />
            <mxPoint x="-161.64846153846167" y="267.74857142857127" as="targetPoint" />
          </mxGeometry>
        </mxCell>
        <mxCell id="eDhHdD21VxhMocc9II1k-112" value="&lt;font style=&quot;font-size: 9px;&quot; face=&quot;Georgia&quot;&gt;&lt;i&gt;Item &lt;sub&gt;c2&lt;/sub&gt;&lt;/i&gt;&lt;/font&gt;" style="text;html=1;align=center;verticalAlign=middle;whiteSpace=wrap;rounded=0;fontSize=11;" parent="1" vertex="1">
          <mxGeometry x="115.44999999999993" y="497.4599999999998" width="60" height="20.57" as="geometry" />
        </mxCell>
        <mxCell id="eDhHdD21VxhMocc9II1k-115" value="" style="group" parent="1" vertex="1" connectable="0">
          <mxGeometry x="47.56230769230763" y="392.26999999999987" width="40" height="44.57142857142857" as="geometry" />
        </mxCell>
        <mxCell id="eDhHdD21VxhMocc9II1k-116" value="" style="shape=curlyBracket;whiteSpace=wrap;html=1;rounded=1;flipH=1;fontSize=22;rotation=-90;size=0.5;" parent="eDhHdD21VxhMocc9II1k-115" vertex="1">
          <mxGeometry x="18.076923076923077" y="36.62142857142857" width="10.769230769230768" height="34.285714285714285" as="geometry" />
        </mxCell>
        <mxCell id="eDhHdD21VxhMocc9II1k-117" value="&lt;font style=&quot;font-size: 11px;&quot;&gt;concat&lt;/font&gt;" style="rounded=1;whiteSpace=wrap;html=1;fontSize=11;" parent="eDhHdD21VxhMocc9II1k-115" vertex="1">
          <mxGeometry x="4.14" y="36.05" width="38.65" height="10.43" as="geometry" />
        </mxCell>
        <mxCell id="eDhHdD21VxhMocc9II1k-118" value="" style="rounded=0;whiteSpace=wrap;html=1;fontSize=22;" parent="1" vertex="1">
          <mxGeometry x="62.946923076923014" y="452.8914285714284" width="5.384615384615384" height="6.857142857142857" as="geometry" />
        </mxCell>
        <mxCell id="eDhHdD21VxhMocc9II1k-119" value="" style="rounded=0;whiteSpace=wrap;html=1;fontSize=22;" parent="1" vertex="1">
          <mxGeometry x="62.946923076923014" y="459.74857142857127" width="5.384615384615384" height="6.857142857142857" as="geometry" />
        </mxCell>
        <mxCell id="eDhHdD21VxhMocc9II1k-120" value="" style="rounded=0;whiteSpace=wrap;html=1;fontSize=22;" parent="1" vertex="1">
          <mxGeometry x="62.946923076923014" y="466.60571428571416" width="5.384615384615384" height="6.857142857142857" as="geometry" />
        </mxCell>
        <mxCell id="eDhHdD21VxhMocc9II1k-121" value="" style="rounded=0;whiteSpace=wrap;html=1;fontSize=22;" parent="1" vertex="1">
          <mxGeometry x="62.946923076923014" y="473.46285714285705" width="5.384615384615384" height="6.857142857142857" as="geometry" />
        </mxCell>
        <mxCell id="eDhHdD21VxhMocc9II1k-122" value="" style="rounded=0;whiteSpace=wrap;html=1;fontSize=22;" parent="1" vertex="1">
          <mxGeometry x="74.86615384615376" y="452.8914285714284" width="5.384615384615384" height="6.857142857142857" as="geometry" />
        </mxCell>
        <mxCell id="eDhHdD21VxhMocc9II1k-123" value="" style="rounded=0;whiteSpace=wrap;html=1;fontSize=22;" parent="1" vertex="1">
          <mxGeometry x="74.86615384615376" y="459.74857142857127" width="5.384615384615384" height="6.857142857142857" as="geometry" />
        </mxCell>
        <mxCell id="eDhHdD21VxhMocc9II1k-124" value="" style="rounded=0;whiteSpace=wrap;html=1;fontSize=22;" parent="1" vertex="1">
          <mxGeometry x="74.86615384615376" y="466.60571428571416" width="5.384615384615384" height="10.285714285714285" as="geometry" />
        </mxCell>
        <mxCell id="eDhHdD21VxhMocc9II1k-125" value="" style="rounded=0;whiteSpace=wrap;html=1;fontSize=22;" parent="1" vertex="1">
          <mxGeometry x="74.86615384615376" y="473.46285714285705" width="5.384615384615384" height="6.857142857142857" as="geometry" />
        </mxCell>
        <mxCell id="eDhHdD21VxhMocc9II1k-126" value="" style="ellipse;whiteSpace=wrap;html=1;aspect=fixed;fontSize=11;" parent="1" vertex="1">
          <mxGeometry x="62.946923076923014" y="497.46285714285705" width="4.615384615384615" height="4.615384615384615" as="geometry" />
        </mxCell>
        <mxCell id="eDhHdD21VxhMocc9II1k-127" value="" style="ellipse;whiteSpace=wrap;html=1;aspect=fixed;fontSize=11;" parent="1" vertex="1">
          <mxGeometry x="74.86615384615376" y="497.46285714285705" width="4.615384615384615" height="4.615384615384615" as="geometry" />
        </mxCell>
        <mxCell id="eDhHdD21VxhMocc9II1k-128" value="" style="endArrow=classic;html=1;rounded=0;fontSize=11;exitX=0.5;exitY=0;exitDx=0;exitDy=0;entryX=0.5;entryY=1;entryDx=0;entryDy=0;" parent="1" source="eDhHdD21VxhMocc9II1k-126" target="eDhHdD21VxhMocc9II1k-121" edge="1">
          <mxGeometry width="50" height="50" relative="1" as="geometry">
            <mxPoint x="-268.2069230769231" y="223.17714285714268" as="sourcePoint" />
            <mxPoint x="-241.28384615384618" y="188.89142857142846" as="targetPoint" />
          </mxGeometry>
        </mxCell>
        <mxCell id="eDhHdD21VxhMocc9II1k-129" value="" style="endArrow=classic;html=1;rounded=0;fontSize=11;exitX=0.5;exitY=0;exitDx=0;exitDy=0;entryX=0.5;entryY=1;entryDx=0;entryDy=0;" parent="1" source="eDhHdD21VxhMocc9II1k-127" target="eDhHdD21VxhMocc9II1k-125" edge="1">
          <mxGeometry width="50" height="50" relative="1" as="geometry">
            <mxPoint x="-237.53846153846166" y="284.8914285714284" as="sourcePoint" />
            <mxPoint x="-237.53846153846166" y="267.74857142857127" as="targetPoint" />
          </mxGeometry>
        </mxCell>
        <mxCell id="eDhHdD21VxhMocc9II1k-130" value="&lt;font style=&quot;font-size: 9px;&quot; face=&quot;Georgia&quot;&gt;&lt;i&gt;Item &lt;sub&gt;c1&lt;/sub&gt;&lt;/i&gt;&lt;/font&gt;" style="text;html=1;align=center;verticalAlign=middle;whiteSpace=wrap;rounded=0;fontSize=11;" parent="1" vertex="1">
          <mxGeometry x="37.55999999999992" y="497.4599999999998" width="60" height="20.57" as="geometry" />
        </mxCell>
        <mxCell id="eDhHdD21VxhMocc9II1k-133" style="edgeStyle=none;rounded=0;orthogonalLoop=1;jettySize=auto;html=1;exitX=0.5;exitY=0;exitDx=0;exitDy=0;fontFamily=Georgia;fontSize=10;" parent="1" source="eDhHdD21VxhMocc9II1k-117" edge="1">
          <mxGeometry relative="1" as="geometry">
            <mxPoint x="70.86999999999989" y="402.2700000000001" as="targetPoint" />
          </mxGeometry>
        </mxCell>
        <mxCell id="eDhHdD21VxhMocc9II1k-238" style="edgeStyle=orthogonalEdgeStyle;rounded=0;orthogonalLoop=1;jettySize=auto;html=1;exitX=0.5;exitY=0;exitDx=0;exitDy=0;entryX=0.877;entryY=1.038;entryDx=0;entryDy=0;entryPerimeter=0;" parent="1" edge="1">
          <mxGeometry relative="1" as="geometry">
            <mxPoint x="266.46000000000004" y="262.64999999999986" as="targetPoint" />
            <mxPoint x="267.45000000000044" y="312.27" as="sourcePoint" />
            <Array as="points">
              <mxPoint x="266.14000000000004" y="312.27" />
              <mxPoint x="266.14000000000004" y="287.27" />
              <mxPoint x="266.14000000000004" y="287.27" />
            </Array>
          </mxGeometry>
        </mxCell>
        <mxCell id="eDhHdD21VxhMocc9II1k-269" style="edgeStyle=orthogonalEdgeStyle;rounded=0;orthogonalLoop=1;jettySize=auto;html=1;jumpStyle=arc;jumpSize=17;" parent="1" edge="1">
          <mxGeometry relative="1" as="geometry">
            <mxPoint x="120" y="294.54999999999995" as="targetPoint" />
            <mxPoint x="265.45000000000005" y="294.27" as="sourcePoint" />
          </mxGeometry>
        </mxCell>
        <mxCell id="eDhHdD21VxhMocc9II1k-187" value="&lt;font style=&quot;font-size: 12px;&quot;&gt;Muti-Head Attention&lt;/font&gt;" style="rounded=1;whiteSpace=wrap;html=1;" parent="1" vertex="1">
          <mxGeometry x="223.52000000000004" y="312.27" width="120.48" height="20" as="geometry" />
        </mxCell>
        <mxCell id="eDhHdD21VxhMocc9II1k-192" style="edgeStyle=orthogonalEdgeStyle;rounded=0;orthogonalLoop=1;jettySize=auto;html=1;fontFamily=Georgia;fontSize=10;jumpStyle=arc;entryX=0;entryY=0.5;entryDx=0;entryDy=0;" parent="1" target="eDhHdD21VxhMocc9II1k-267" edge="1">
          <mxGeometry relative="1" as="geometry">
            <mxPoint x="185.45000000000005" y="282.27" as="targetPoint" />
            <mxPoint x="155.45000000000005" y="352.27" as="sourcePoint" />
            <Array as="points">
              <mxPoint x="155.45000000000005" y="257.27" />
              <mxPoint x="184.45000000000005" y="257.27" />
            </Array>
          </mxGeometry>
        </mxCell>
        <mxCell id="eDhHdD21VxhMocc9II1k-194" value="&lt;b&gt;Key / Value&lt;/b&gt;" style="text;html=1;align=center;verticalAlign=middle;whiteSpace=wrap;rounded=0;" parent="1" vertex="1">
          <mxGeometry x="150.76000000000005" y="362.27" width="81.31" height="30" as="geometry" />
        </mxCell>
        <mxCell id="eDhHdD21VxhMocc9II1k-195" value="" style="group" parent="1" vertex="1" connectable="0">
          <mxGeometry x="305.97230769230765" y="392.26999999999987" width="40" height="44.57142857142857" as="geometry" />
        </mxCell>
        <mxCell id="eDhHdD21VxhMocc9II1k-196" value="" style="shape=curlyBracket;whiteSpace=wrap;html=1;rounded=1;flipH=1;fontSize=22;rotation=-90;size=0.5;" parent="eDhHdD21VxhMocc9II1k-195" vertex="1">
          <mxGeometry x="3.4169230769230765" y="36.62142857142857" width="10.769230769230768" height="34.285714285714285" as="geometry" />
        </mxCell>
        <mxCell id="eDhHdD21VxhMocc9II1k-197" value="&lt;font style=&quot;font-size: 11px;&quot;&gt;concat&lt;/font&gt;" style="rounded=1;whiteSpace=wrap;html=1;fontSize=11;" parent="eDhHdD21VxhMocc9II1k-195" vertex="1">
          <mxGeometry x="-10.52" y="36.05" width="38.65" height="10.43" as="geometry" />
        </mxCell>
        <mxCell id="eDhHdD21VxhMocc9II1k-198" value="" style="rounded=0;whiteSpace=wrap;html=1;fontSize=22;" parent="1" vertex="1">
          <mxGeometry x="306.696923076923" y="452.8914285714285" width="5.384615384615384" height="6.857142857142857" as="geometry" />
        </mxCell>
        <mxCell id="eDhHdD21VxhMocc9II1k-199" value="" style="rounded=0;whiteSpace=wrap;html=1;fontSize=22;" parent="1" vertex="1">
          <mxGeometry x="306.696923076923" y="459.7485714285714" width="5.384615384615384" height="6.857142857142857" as="geometry" />
        </mxCell>
        <mxCell id="eDhHdD21VxhMocc9II1k-200" value="" style="rounded=0;whiteSpace=wrap;html=1;fontSize=22;" parent="1" vertex="1">
          <mxGeometry x="306.696923076923" y="466.60571428571427" width="5.384615384615384" height="6.857142857142857" as="geometry" />
        </mxCell>
        <mxCell id="eDhHdD21VxhMocc9II1k-201" value="" style="rounded=0;whiteSpace=wrap;html=1;fontSize=22;" parent="1" vertex="1">
          <mxGeometry x="306.696923076923" y="473.46285714285716" width="5.384615384615384" height="6.857142857142857" as="geometry" />
        </mxCell>
        <mxCell id="eDhHdD21VxhMocc9II1k-202" value="" style="rounded=0;whiteSpace=wrap;html=1;fontSize=22;" parent="1" vertex="1">
          <mxGeometry x="318.6161538461538" y="452.8914285714285" width="5.384615384615384" height="6.857142857142857" as="geometry" />
        </mxCell>
        <mxCell id="eDhHdD21VxhMocc9II1k-203" value="" style="rounded=0;whiteSpace=wrap;html=1;fontSize=22;" parent="1" vertex="1">
          <mxGeometry x="318.6161538461538" y="459.7485714285714" width="5.384615384615384" height="6.857142857142857" as="geometry" />
        </mxCell>
        <mxCell id="eDhHdD21VxhMocc9II1k-204" value="" style="rounded=0;whiteSpace=wrap;html=1;fontSize=22;" parent="1" vertex="1">
          <mxGeometry x="318.6161538461538" y="466.60571428571427" width="5.384615384615384" height="10.285714285714285" as="geometry" />
        </mxCell>
        <mxCell id="eDhHdD21VxhMocc9II1k-205" value="" style="rounded=0;whiteSpace=wrap;html=1;fontSize=22;" parent="1" vertex="1">
          <mxGeometry x="318.6161538461538" y="473.46285714285716" width="5.384615384615384" height="6.857142857142857" as="geometry" />
        </mxCell>
        <mxCell id="eDhHdD21VxhMocc9II1k-206" value="" style="ellipse;whiteSpace=wrap;html=1;aspect=fixed;fontSize=11;" parent="1" vertex="1">
          <mxGeometry x="306.696923076923" y="497.46285714285716" width="4.615384615384615" height="4.615384615384615" as="geometry" />
        </mxCell>
        <mxCell id="eDhHdD21VxhMocc9II1k-207" value="" style="ellipse;whiteSpace=wrap;html=1;aspect=fixed;fontSize=11;" parent="1" vertex="1">
          <mxGeometry x="318.6161538461538" y="497.46285714285716" width="4.615384615384615" height="4.615384615384615" as="geometry" />
        </mxCell>
        <mxCell id="eDhHdD21VxhMocc9II1k-208" value="" style="endArrow=classic;html=1;rounded=0;fontSize=11;exitX=0.5;exitY=0;exitDx=0;exitDy=0;entryX=0.5;entryY=1;entryDx=0;entryDy=0;" parent="1" source="eDhHdD21VxhMocc9II1k-206" target="eDhHdD21VxhMocc9II1k-201" edge="1">
          <mxGeometry width="50" height="50" relative="1" as="geometry">
            <mxPoint x="-838.4569230769232" y="-276.8228571428573" as="sourcePoint" />
            <mxPoint x="-811.5338461538463" y="-311.1085714285715" as="targetPoint" />
          </mxGeometry>
        </mxCell>
        <mxCell id="eDhHdD21VxhMocc9II1k-209" value="" style="endArrow=classic;html=1;rounded=0;fontSize=11;exitX=0.5;exitY=0;exitDx=0;exitDy=0;entryX=0.5;entryY=1;entryDx=0;entryDy=0;" parent="1" source="eDhHdD21VxhMocc9II1k-207" target="eDhHdD21VxhMocc9II1k-205" edge="1">
          <mxGeometry width="50" height="50" relative="1" as="geometry">
            <mxPoint x="-807.7884615384617" y="-215.10857142857148" as="sourcePoint" />
            <mxPoint x="-807.7884615384617" y="-232.2514285714286" as="targetPoint" />
          </mxGeometry>
        </mxCell>
        <mxCell id="eDhHdD21VxhMocc9II1k-210" style="edgeStyle=none;rounded=0;orthogonalLoop=1;jettySize=auto;html=1;exitX=0.5;exitY=0;exitDx=0;exitDy=0;fontFamily=Georgia;fontSize=10;entryX=0.75;entryY=1;entryDx=0;entryDy=0;" parent="1" source="eDhHdD21VxhMocc9II1k-197" target="eDhHdD21VxhMocc9II1k-187" edge="1">
          <mxGeometry relative="1" as="geometry">
            <mxPoint x="332.45000000000005" y="282.27" as="targetPoint" />
          </mxGeometry>
        </mxCell>
        <mxCell id="eDhHdD21VxhMocc9II1k-237" value="&lt;b&gt;Qurey&lt;/b&gt;" style="text;html=1;align=center;verticalAlign=middle;whiteSpace=wrap;rounded=0;" parent="1" vertex="1">
          <mxGeometry x="297.95" y="362.27" width="81.31" height="30" as="geometry" />
        </mxCell>
        <mxCell id="eDhHdD21VxhMocc9II1k-253" value="&lt;font face=&quot;Times New Roman&quot;&gt;&lt;i&gt;Attention-Weight&lt;/i&gt;&lt;/font&gt;" style="text;html=1;align=center;verticalAlign=middle;whiteSpace=wrap;rounded=0;" parent="1" vertex="1">
          <mxGeometry x="218.62000000000006" y="234.54999999999998" width="100" height="17.72" as="geometry" />
        </mxCell>
        <mxCell id="eDhHdD21VxhMocc9II1k-254" value="" style="group;fontStyle=1;" parent="1" vertex="1" connectable="0">
          <mxGeometry x="224.17000000000007" y="252.27" width="80" height="10" as="geometry" />
        </mxCell>
        <mxCell id="eDhHdD21VxhMocc9II1k-255" value="" style="group;fontStyle=1" parent="eDhHdD21VxhMocc9II1k-254" vertex="1" connectable="0">
          <mxGeometry width="40" height="10" as="geometry" />
        </mxCell>
        <mxCell id="eDhHdD21VxhMocc9II1k-256" value="" style="rounded=0;whiteSpace=wrap;html=1;fontSize=22;fontStyle=1" parent="eDhHdD21VxhMocc9II1k-255" vertex="1">
          <mxGeometry width="10" height="10" as="geometry" />
        </mxCell>
        <mxCell id="eDhHdD21VxhMocc9II1k-257" style="edgeStyle=none;rounded=0;orthogonalLoop=1;jettySize=auto;html=1;exitX=1;exitY=1;exitDx=0;exitDy=0;fontSize=22;fontStyle=1" parent="eDhHdD21VxhMocc9II1k-255" source="eDhHdD21VxhMocc9II1k-256" target="eDhHdD21VxhMocc9II1k-256" edge="1">
          <mxGeometry relative="1" as="geometry" />
        </mxCell>
        <mxCell id="eDhHdD21VxhMocc9II1k-258" value="" style="rounded=0;whiteSpace=wrap;html=1;fontSize=22;fontStyle=1" parent="eDhHdD21VxhMocc9II1k-255" vertex="1">
          <mxGeometry x="10" width="10" height="10" as="geometry" />
        </mxCell>
        <mxCell id="eDhHdD21VxhMocc9II1k-260" value="" style="rounded=0;whiteSpace=wrap;html=1;fontSize=22;fontStyle=1" parent="eDhHdD21VxhMocc9II1k-255" vertex="1">
          <mxGeometry x="30" width="10" height="10" as="geometry" />
        </mxCell>
        <mxCell id="eDhHdD21VxhMocc9II1k-316" value="" style="rounded=0;whiteSpace=wrap;html=1;fontSize=22;fontStyle=1" parent="eDhHdD21VxhMocc9II1k-255" vertex="1">
          <mxGeometry x="20" width="10" height="10" as="geometry" />
        </mxCell>
        <mxCell id="eDhHdD21VxhMocc9II1k-261" value="" style="group;fontStyle=1" parent="eDhHdD21VxhMocc9II1k-254" vertex="1" connectable="0">
          <mxGeometry x="40" width="40" height="10" as="geometry" />
        </mxCell>
        <mxCell id="eDhHdD21VxhMocc9II1k-262" value="" style="rounded=0;whiteSpace=wrap;html=1;fontSize=22;fontStyle=1" parent="eDhHdD21VxhMocc9II1k-261" vertex="1">
          <mxGeometry width="10" height="10" as="geometry" />
        </mxCell>
        <mxCell id="eDhHdD21VxhMocc9II1k-263" style="edgeStyle=none;rounded=0;orthogonalLoop=1;jettySize=auto;html=1;exitX=1;exitY=1;exitDx=0;exitDy=0;fontSize=22;fontStyle=1" parent="eDhHdD21VxhMocc9II1k-261" source="eDhHdD21VxhMocc9II1k-262" target="eDhHdD21VxhMocc9II1k-262" edge="1">
          <mxGeometry relative="1" as="geometry" />
        </mxCell>
        <mxCell id="eDhHdD21VxhMocc9II1k-264" value="" style="rounded=0;whiteSpace=wrap;html=1;fontSize=22;fontStyle=1" parent="eDhHdD21VxhMocc9II1k-261" vertex="1">
          <mxGeometry x="10" width="10" height="10" as="geometry" />
        </mxCell>
        <mxCell id="eDhHdD21VxhMocc9II1k-265" value="" style="rounded=0;whiteSpace=wrap;html=1;fontSize=22;fontStyle=1" parent="eDhHdD21VxhMocc9II1k-261" vertex="1">
          <mxGeometry x="20" width="10" height="10" as="geometry" />
        </mxCell>
        <mxCell id="eDhHdD21VxhMocc9II1k-266" value="" style="rounded=0;whiteSpace=wrap;html=1;fontSize=22;fontStyle=1" parent="eDhHdD21VxhMocc9II1k-261" vertex="1">
          <mxGeometry x="30" width="10" height="10" as="geometry" />
        </mxCell>
        <mxCell id="eDhHdD21VxhMocc9II1k-267" value="" style="shape=sumEllipse;perimeter=ellipsePerimeter;whiteSpace=wrap;html=1;backgroundOutline=1;rotation=-5;" parent="1" vertex="1">
          <mxGeometry x="184.31000000000006" y="252.27" width="10" height="10" as="geometry" />
        </mxCell>
        <mxCell id="eDhHdD21VxhMocc9II1k-268" style="edgeStyle=orthogonalEdgeStyle;rounded=0;orthogonalLoop=1;jettySize=auto;html=1;exitX=0;exitY=0.5;exitDx=0;exitDy=0;entryX=1;entryY=0.5;entryDx=0;entryDy=0;" parent="1" source="eDhHdD21VxhMocc9II1k-256" target="eDhHdD21VxhMocc9II1k-267" edge="1">
          <mxGeometry relative="1" as="geometry">
            <mxPoint x="202.17000000000007" y="249.53894154818332" as="targetPoint" />
          </mxGeometry>
        </mxCell>
        <mxCell id="eDhHdD21VxhMocc9II1k-281" style="edgeStyle=orthogonalEdgeStyle;rounded=0;orthogonalLoop=1;jettySize=auto;html=1;exitX=0;exitY=0.5;exitDx=0;exitDy=0;entryX=0;entryY=1;entryDx=0;entryDy=0;" parent="1" source="eDhHdD21VxhMocc9II1k-270" target="eDhHdD21VxhMocc9II1k-277" edge="1">
          <mxGeometry relative="1" as="geometry" />
        </mxCell>
        <mxCell id="eDhHdD21VxhMocc9II1k-270" value="1-" style="ellipse;whiteSpace=wrap;html=1;aspect=fixed;" parent="1" vertex="1">
          <mxGeometry x="100.83000000000001" y="284.54999999999995" width="20" height="20" as="geometry" />
        </mxCell>
        <mxCell id="eDhHdD21VxhMocc9II1k-271" value="" style="group;" parent="1" vertex="1" connectable="0">
          <mxGeometry x="20" y="252.27" width="40" height="10" as="geometry" />
        </mxCell>
        <mxCell id="eDhHdD21VxhMocc9II1k-272" value="" style="rounded=0;whiteSpace=wrap;html=1;fontSize=22;" parent="eDhHdD21VxhMocc9II1k-271" vertex="1">
          <mxGeometry width="10" height="10" as="geometry" />
        </mxCell>
        <mxCell id="eDhHdD21VxhMocc9II1k-273" style="edgeStyle=none;rounded=0;orthogonalLoop=1;jettySize=auto;html=1;exitX=1;exitY=1;exitDx=0;exitDy=0;fontSize=22;" parent="eDhHdD21VxhMocc9II1k-271" source="eDhHdD21VxhMocc9II1k-272" target="eDhHdD21VxhMocc9II1k-272" edge="1">
          <mxGeometry relative="1" as="geometry" />
        </mxCell>
        <mxCell id="eDhHdD21VxhMocc9II1k-274" value="" style="rounded=0;whiteSpace=wrap;html=1;fontSize=22;" parent="eDhHdD21VxhMocc9II1k-271" vertex="1">
          <mxGeometry x="10" width="10" height="10" as="geometry" />
        </mxCell>
        <mxCell id="eDhHdD21VxhMocc9II1k-275" value="" style="rounded=0;whiteSpace=wrap;html=1;fontSize=22;" parent="eDhHdD21VxhMocc9II1k-271" vertex="1">
          <mxGeometry x="20" width="10" height="10" as="geometry" />
        </mxCell>
        <mxCell id="eDhHdD21VxhMocc9II1k-276" value="" style="rounded=0;whiteSpace=wrap;html=1;fontSize=22;" parent="eDhHdD21VxhMocc9II1k-271" vertex="1">
          <mxGeometry x="30" width="10" height="10" as="geometry" />
        </mxCell>
        <mxCell id="eDhHdD21VxhMocc9II1k-277" value="" style="rounded=0;whiteSpace=wrap;html=1;fontSize=22;" parent="1" vertex="1">
          <mxGeometry x="60" y="252.27" width="10" height="10" as="geometry" />
        </mxCell>
        <mxCell id="eDhHdD21VxhMocc9II1k-278" value="" style="rounded=0;whiteSpace=wrap;html=1;fontSize=22;" parent="1" vertex="1">
          <mxGeometry x="70" y="252.27" width="10" height="10" as="geometry" />
        </mxCell>
        <mxCell id="eDhHdD21VxhMocc9II1k-279" value="" style="rounded=0;whiteSpace=wrap;html=1;fontSize=22;" parent="1" vertex="1">
          <mxGeometry x="80" y="252.27" width="10" height="10" as="geometry" />
        </mxCell>
        <mxCell id="eDhHdD21VxhMocc9II1k-284" style="edgeStyle=orthogonalEdgeStyle;rounded=0;orthogonalLoop=1;jettySize=auto;html=1;exitX=1;exitY=0.5;exitDx=0;exitDy=0;entryX=0;entryY=0.5;entryDx=0;entryDy=0;" parent="1" source="eDhHdD21VxhMocc9II1k-280" target="eDhHdD21VxhMocc9II1k-282" edge="1">
          <mxGeometry relative="1" as="geometry" />
        </mxCell>
        <mxCell id="eDhHdD21VxhMocc9II1k-280" value="" style="rounded=0;whiteSpace=wrap;html=1;fontSize=22;" parent="1" vertex="1">
          <mxGeometry x="90" y="252.27" width="10" height="10" as="geometry" />
        </mxCell>
        <mxCell id="eDhHdD21VxhMocc9II1k-318" style="edgeStyle=orthogonalEdgeStyle;rounded=0;orthogonalLoop=1;jettySize=auto;html=1;exitX=0.5;exitY=0;exitDx=0;exitDy=0;entryX=0.32;entryY=1.137;entryDx=0;entryDy=0;entryPerimeter=0;" parent="1" source="eDhHdD21VxhMocc9II1k-282" target="eDhHdD21VxhMocc9II1k-314" edge="1">
          <mxGeometry relative="1" as="geometry" />
        </mxCell>
        <mxCell id="eDhHdD21VxhMocc9II1k-282" value="" style="shape=sumEllipse;perimeter=ellipsePerimeter;whiteSpace=wrap;html=1;backgroundOutline=1;" parent="1" vertex="1">
          <mxGeometry x="118" y="252.27" width="10" height="10" as="geometry" />
        </mxCell>
        <mxCell id="eDhHdD21VxhMocc9II1k-285" style="edgeStyle=orthogonalEdgeStyle;rounded=0;orthogonalLoop=1;jettySize=auto;html=1;" parent="1" edge="1">
          <mxGeometry relative="1" as="geometry">
            <mxPoint x="158.59000000000003" y="257.22" as="sourcePoint" />
            <mxPoint x="128.59000000000003" y="257.22" as="targetPoint" />
            <Array as="points">
              <mxPoint x="158.59000000000003" y="257.22" />
            </Array>
          </mxGeometry>
        </mxCell>
        <mxCell id="eDhHdD21VxhMocc9II1k-288" value="&lt;font style=&quot;&quot; face=&quot;Georgia&quot;&gt;&lt;i style=&quot;&quot;&gt;&lt;font size=&quot;1&quot;&gt;Item &lt;/font&gt;&lt;span style=&quot;font-size: 7.5px;&quot;&gt;- Target&lt;/span&gt;&lt;/i&gt;&lt;/font&gt;" style="text;html=1;align=center;verticalAlign=middle;whiteSpace=wrap;rounded=0;fontSize=11;" parent="1" vertex="1">
          <mxGeometry x="284.72" y="497.46000000000004" width="82.5" height="20.57" as="geometry" />
        </mxCell>
        <mxCell id="eDhHdD21VxhMocc9II1k-289" value="&lt;i&gt;&lt;font face=&quot;Times New Roman&quot;&gt;Opposite&lt;/font&gt;&lt;/i&gt;&lt;font face=&quot;Times New Roman&quot;&gt;&lt;i&gt;-Weight&lt;/i&gt;&lt;/font&gt;" style="text;html=1;align=center;verticalAlign=middle;whiteSpace=wrap;rounded=0;" parent="1" vertex="1">
          <mxGeometry x="5.450000000000017" y="234.54999999999998" width="100" height="17.72" as="geometry" />
        </mxCell>
        <mxCell id="eDhHdD21VxhMocc9II1k-295" value="" style="group;fontStyle=1;" parent="1" vertex="1" connectable="0">
          <mxGeometry x="165.45000000000005" y="162.27" width="80" height="10" as="geometry" />
        </mxCell>
        <mxCell id="eDhHdD21VxhMocc9II1k-296" value="" style="group;fontStyle=1" parent="eDhHdD21VxhMocc9II1k-295" vertex="1" connectable="0">
          <mxGeometry width="40" height="10" as="geometry" />
        </mxCell>
        <mxCell id="eDhHdD21VxhMocc9II1k-297" value="" style="rounded=0;whiteSpace=wrap;html=1;fontSize=22;fontStyle=1" parent="eDhHdD21VxhMocc9II1k-296" vertex="1">
          <mxGeometry width="10" height="10" as="geometry" />
        </mxCell>
        <mxCell id="eDhHdD21VxhMocc9II1k-298" style="edgeStyle=none;rounded=0;orthogonalLoop=1;jettySize=auto;html=1;exitX=1;exitY=1;exitDx=0;exitDy=0;fontSize=22;fontStyle=1;" parent="eDhHdD21VxhMocc9II1k-296" source="eDhHdD21VxhMocc9II1k-297" target="eDhHdD21VxhMocc9II1k-297" edge="1">
          <mxGeometry relative="1" as="geometry" />
        </mxCell>
        <mxCell id="eDhHdD21VxhMocc9II1k-299" value="" style="rounded=0;whiteSpace=wrap;html=1;fontSize=22;fontStyle=1" parent="eDhHdD21VxhMocc9II1k-296" vertex="1">
          <mxGeometry x="10" width="10" height="10" as="geometry" />
        </mxCell>
        <mxCell id="eDhHdD21VxhMocc9II1k-300" value="" style="rounded=0;whiteSpace=wrap;html=1;fontSize=22;fontStyle=1" parent="eDhHdD21VxhMocc9II1k-296" vertex="1">
          <mxGeometry x="20" width="10" height="10" as="geometry" />
        </mxCell>
        <mxCell id="eDhHdD21VxhMocc9II1k-301" value="" style="rounded=0;whiteSpace=wrap;html=1;fontSize=22;fontStyle=1" parent="eDhHdD21VxhMocc9II1k-296" vertex="1">
          <mxGeometry x="30" width="10" height="10" as="geometry" />
        </mxCell>
        <mxCell id="eDhHdD21VxhMocc9II1k-302" value="" style="group;fontStyle=1" parent="eDhHdD21VxhMocc9II1k-295" vertex="1" connectable="0">
          <mxGeometry x="40" width="40" height="10" as="geometry" />
        </mxCell>
        <mxCell id="eDhHdD21VxhMocc9II1k-303" value="" style="rounded=0;whiteSpace=wrap;html=1;fontSize=22;fontStyle=1" parent="eDhHdD21VxhMocc9II1k-302" vertex="1">
          <mxGeometry width="10" height="10" as="geometry" />
        </mxCell>
        <mxCell id="eDhHdD21VxhMocc9II1k-304" style="edgeStyle=none;rounded=0;orthogonalLoop=1;jettySize=auto;html=1;exitX=1;exitY=1;exitDx=0;exitDy=0;fontSize=22;fontStyle=1;" parent="eDhHdD21VxhMocc9II1k-302" source="eDhHdD21VxhMocc9II1k-303" target="eDhHdD21VxhMocc9II1k-303" edge="1">
          <mxGeometry relative="1" as="geometry" />
        </mxCell>
        <mxCell id="eDhHdD21VxhMocc9II1k-305" value="" style="rounded=0;whiteSpace=wrap;html=1;fontSize=22;fontStyle=1" parent="eDhHdD21VxhMocc9II1k-302" vertex="1">
          <mxGeometry x="10" width="10" height="10" as="geometry" />
        </mxCell>
        <mxCell id="eDhHdD21VxhMocc9II1k-306" value="" style="rounded=0;whiteSpace=wrap;html=1;fontSize=22;fontStyle=1" parent="eDhHdD21VxhMocc9II1k-302" vertex="1">
          <mxGeometry x="20" width="10" height="10" as="geometry" />
        </mxCell>
        <mxCell id="eDhHdD21VxhMocc9II1k-307" value="" style="rounded=0;whiteSpace=wrap;html=1;fontSize=22;fontStyle=1" parent="eDhHdD21VxhMocc9II1k-302" vertex="1">
          <mxGeometry x="30" width="10" height="10" as="geometry" />
        </mxCell>
        <mxCell id="eDhHdD21VxhMocc9II1k-308" value="" style="rounded=0;whiteSpace=wrap;html=1;fontSize=22;" parent="1" vertex="1">
          <mxGeometry x="60" y="162.27" width="10" height="10" as="geometry" />
        </mxCell>
        <mxCell id="eDhHdD21VxhMocc9II1k-309" value="" style="rounded=0;whiteSpace=wrap;html=1;fontSize=22;" parent="1" vertex="1">
          <mxGeometry x="70" y="162.27" width="10" height="10" as="geometry" />
        </mxCell>
        <mxCell id="eDhHdD21VxhMocc9II1k-310" value="" style="rounded=0;whiteSpace=wrap;html=1;fontSize=22;" parent="1" vertex="1">
          <mxGeometry x="80" y="162.27" width="10" height="10" as="geometry" />
        </mxCell>
        <mxCell id="eDhHdD21VxhMocc9II1k-311" value="" style="rounded=0;whiteSpace=wrap;html=1;fontSize=22;" parent="1" vertex="1">
          <mxGeometry x="90" y="162.27" width="10" height="10" as="geometry" />
        </mxCell>
        <mxCell id="eDhHdD21VxhMocc9II1k-312" value="" style="rounded=0;whiteSpace=wrap;html=1;fontSize=22;" parent="1" vertex="1">
          <mxGeometry x="100" y="162.27" width="10" height="10" as="geometry" />
        </mxCell>
        <mxCell id="eDhHdD21VxhMocc9II1k-313" value="" style="rounded=0;whiteSpace=wrap;html=1;fontSize=22;" parent="1" vertex="1">
          <mxGeometry x="109.99999999999997" y="162.27" width="10" height="10" as="geometry" />
        </mxCell>
        <mxCell id="eDhHdD21VxhMocc9II1k-314" value="" style="rounded=0;whiteSpace=wrap;html=1;fontSize=22;" parent="1" vertex="1">
          <mxGeometry x="119.99999999999997" y="162.27" width="10" height="10" as="geometry" />
        </mxCell>
        <mxCell id="eDhHdD21VxhMocc9II1k-315" value="" style="rounded=0;whiteSpace=wrap;html=1;fontSize=22;" parent="1" vertex="1">
          <mxGeometry x="130" y="162.27" width="10" height="10" as="geometry" />
        </mxCell>
        <mxCell id="eDhHdD21VxhMocc9II1k-319" style="edgeStyle=orthogonalEdgeStyle;rounded=0;orthogonalLoop=1;jettySize=auto;html=1;exitX=0.5;exitY=0;exitDx=0;exitDy=0;entryX=0.5;entryY=1;entryDx=0;entryDy=0;" parent="1" target="eDhHdD21VxhMocc9II1k-300" edge="1">
          <mxGeometry relative="1" as="geometry">
            <mxPoint x="189.05000000000007" y="252.27" as="sourcePoint" />
            <mxPoint x="189.05000000000007" y="193.27" as="targetPoint" />
          </mxGeometry>
        </mxCell>
        <mxCell id="eDhHdD21VxhMocc9II1k-320" value="&lt;b&gt;&lt;font style=&quot;font-size: 14px;&quot; color=&quot;#1a1a1a&quot;&gt;对比向量Attention模块&lt;/font&gt;&lt;/b&gt;" style="text;html=1;align=center;verticalAlign=middle;whiteSpace=wrap;rounded=0;" parent="1" vertex="1">
          <mxGeometry x="234.14000000000001" y="202.27" width="156" height="34.55" as="geometry" />
        </mxCell>
        <mxCell id="eDhHdD21VxhMocc9II1k-322" value="&lt;b&gt;正向向量&lt;/b&gt;" style="text;html=1;align=center;verticalAlign=middle;whiteSpace=wrap;rounded=0;" parent="1" vertex="1">
          <mxGeometry x="193.49000000000007" y="172.27" width="81.31" height="30" as="geometry" />
        </mxCell>
        <mxCell id="eDhHdD21VxhMocc9II1k-324" value="&lt;b&gt;负向向量&lt;/b&gt;" style="text;html=1;align=center;verticalAlign=middle;whiteSpace=wrap;rounded=0;" parent="1" vertex="1">
          <mxGeometry x="37.56000000000003" y="172.27" width="81.31" height="30" as="geometry" />
        </mxCell>
        <mxCell id="IR68_CzAtFla6GQySJcf-101" value="&lt;font style=&quot;font-size: 22px;&quot;&gt;……&lt;/font&gt;" style="text;html=1;align=center;verticalAlign=middle;whiteSpace=wrap;rounded=0;fontFamily=Georgia;fontSize=11;" parent="1" vertex="1">
          <mxGeometry x="881.17" y="619.1800000000001" width="60" height="30" as="geometry" />
        </mxCell>
        <mxCell id="IR68_CzAtFla6GQySJcf-127" value="&lt;font color=&quot;#1a1a1a&quot; face=&quot;Helvetica&quot;&gt;&lt;span style=&quot;font-size: 12px;&quot;&gt;&lt;b style=&quot;&quot;&gt;正向序列-用户点击店铺序列&lt;/b&gt;&lt;/span&gt;&lt;/font&gt;" style="text;html=1;align=center;verticalAlign=middle;whiteSpace=wrap;rounded=0;dashed=1;fontFamily=Georgia;fontSize=22;" parent="1" vertex="1">
          <mxGeometry x="740.9599999999999" y="690.0000000000001" width="256" height="30" as="geometry" />
        </mxCell>
        <mxCell id="eDhHdD21VxhMocc9II1k-5" value="" style="group" parent="1" vertex="1" connectable="0">
          <mxGeometry x="889.9999999999999" y="440" width="80.00000000000004" height="10.000000000000007" as="geometry" />
        </mxCell>
        <mxCell id="IR68_CzAtFla6GQySJcf-93" value="" style="group" parent="eDhHdD21VxhMocc9II1k-5" vertex="1" connectable="0">
          <mxGeometry y="7.105427357601002e-15" width="40" height="10" as="geometry" />
        </mxCell>
        <mxCell id="IR68_CzAtFla6GQySJcf-94" value="" style="rounded=0;whiteSpace=wrap;html=1;fontSize=22;" parent="IR68_CzAtFla6GQySJcf-93" vertex="1">
          <mxGeometry width="10" height="10" as="geometry" />
        </mxCell>
        <mxCell id="IR68_CzAtFla6GQySJcf-95" style="edgeStyle=none;rounded=0;orthogonalLoop=1;jettySize=auto;html=1;exitX=1;exitY=1;exitDx=0;exitDy=0;fontSize=22;" parent="IR68_CzAtFla6GQySJcf-93" source="IR68_CzAtFla6GQySJcf-94" target="IR68_CzAtFla6GQySJcf-94" edge="1">
          <mxGeometry relative="1" as="geometry" />
        </mxCell>
        <mxCell id="IR68_CzAtFla6GQySJcf-96" value="" style="rounded=0;whiteSpace=wrap;html=1;fontSize=22;" parent="IR68_CzAtFla6GQySJcf-93" vertex="1">
          <mxGeometry x="10" width="10" height="10" as="geometry" />
        </mxCell>
        <mxCell id="IR68_CzAtFla6GQySJcf-97" value="" style="rounded=0;whiteSpace=wrap;html=1;fontSize=22;" parent="IR68_CzAtFla6GQySJcf-93" vertex="1">
          <mxGeometry x="20" width="10" height="10" as="geometry" />
        </mxCell>
        <mxCell id="IR68_CzAtFla6GQySJcf-98" value="" style="rounded=0;whiteSpace=wrap;html=1;fontSize=22;" parent="IR68_CzAtFla6GQySJcf-93" vertex="1">
          <mxGeometry x="30" width="10" height="10" as="geometry" />
        </mxCell>
        <mxCell id="eDhHdD21VxhMocc9II1k-1" value="" style="rounded=0;whiteSpace=wrap;html=1;fontSize=22;" parent="eDhHdD21VxhMocc9II1k-5" vertex="1">
          <mxGeometry x="40.00000000000004" width="10" height="10" as="geometry" />
        </mxCell>
        <mxCell id="eDhHdD21VxhMocc9II1k-2" value="" style="rounded=0;whiteSpace=wrap;html=1;fontSize=22;" parent="eDhHdD21VxhMocc9II1k-5" vertex="1">
          <mxGeometry x="50.00000000000004" width="10" height="10" as="geometry" />
        </mxCell>
        <mxCell id="eDhHdD21VxhMocc9II1k-3" value="" style="rounded=0;whiteSpace=wrap;html=1;fontSize=22;" parent="eDhHdD21VxhMocc9II1k-5" vertex="1">
          <mxGeometry x="60.00000000000004" width="10" height="10" as="geometry" />
        </mxCell>
        <mxCell id="eDhHdD21VxhMocc9II1k-4" value="" style="rounded=0;whiteSpace=wrap;html=1;fontSize=22;" parent="eDhHdD21VxhMocc9II1k-5" vertex="1">
          <mxGeometry x="70.00000000000004" width="10" height="10" as="geometry" />
        </mxCell>
        <mxCell id="IR68_CzAtFla6GQySJcf-105" value="" style="group" parent="1" vertex="1" connectable="0">
          <mxGeometry x="834.6123076923076" y="560.8299999999999" width="40" height="44.57142857142857" as="geometry" />
        </mxCell>
        <mxCell id="IR68_CzAtFla6GQySJcf-106" value="" style="shape=curlyBracket;whiteSpace=wrap;html=1;rounded=1;flipH=1;fontSize=22;rotation=-90;size=0.5;" parent="IR68_CzAtFla6GQySJcf-105" vertex="1">
          <mxGeometry x="18.076923076923077" y="36.62142857142857" width="10.769230769230768" height="34.285714285714285" as="geometry" />
        </mxCell>
        <mxCell id="IR68_CzAtFla6GQySJcf-107" value="&lt;font style=&quot;font-size: 11px;&quot;&gt;concat&lt;/font&gt;" style="rounded=1;whiteSpace=wrap;html=1;fontSize=11;" parent="IR68_CzAtFla6GQySJcf-105" vertex="1">
          <mxGeometry x="4.14" y="36.05" width="38.65" height="10.43" as="geometry" />
        </mxCell>
        <mxCell id="eDhHdD21VxhMocc9II1k-330" style="edgeStyle=none;rounded=0;orthogonalLoop=1;jettySize=auto;html=1;exitX=0.5;exitY=0;exitDx=0;exitDy=0;fontFamily=Georgia;fontSize=10;" parent="IR68_CzAtFla6GQySJcf-105" edge="1">
          <mxGeometry relative="1" as="geometry">
            <mxPoint x="23.457692307692355" y="10.170000000000186" as="targetPoint" />
            <mxPoint x="23.227692307692337" y="36.34000000000003" as="sourcePoint" />
          </mxGeometry>
        </mxCell>
        <mxCell id="IR68_CzAtFla6GQySJcf-108" value="" style="rounded=0;whiteSpace=wrap;html=1;fontSize=22;" parent="1" vertex="1">
          <mxGeometry x="849.9969230769229" y="621.4514285714286" width="5.384615384615384" height="6.857142857142857" as="geometry" />
        </mxCell>
        <mxCell id="IR68_CzAtFla6GQySJcf-109" value="" style="rounded=0;whiteSpace=wrap;html=1;fontSize=22;" parent="1" vertex="1">
          <mxGeometry x="849.9969230769229" y="628.3085714285713" width="5.384615384615384" height="6.857142857142857" as="geometry" />
        </mxCell>
        <mxCell id="IR68_CzAtFla6GQySJcf-110" value="" style="rounded=0;whiteSpace=wrap;html=1;fontSize=22;" parent="1" vertex="1">
          <mxGeometry x="849.9969230769229" y="635.1657142857142" width="5.384615384615384" height="6.857142857142857" as="geometry" />
        </mxCell>
        <mxCell id="IR68_CzAtFla6GQySJcf-111" value="" style="rounded=0;whiteSpace=wrap;html=1;fontSize=22;" parent="1" vertex="1">
          <mxGeometry x="849.9969230769229" y="642.0228571428571" width="5.384615384615384" height="6.857142857142857" as="geometry" />
        </mxCell>
        <mxCell id="IR68_CzAtFla6GQySJcf-112" value="" style="rounded=0;whiteSpace=wrap;html=1;fontSize=22;" parent="1" vertex="1">
          <mxGeometry x="861.9161538461537" y="621.4514285714286" width="5.384615384615384" height="6.857142857142857" as="geometry" />
        </mxCell>
        <mxCell id="IR68_CzAtFla6GQySJcf-113" value="" style="rounded=0;whiteSpace=wrap;html=1;fontSize=22;" parent="1" vertex="1">
          <mxGeometry x="861.9161538461537" y="628.3085714285713" width="5.384615384615384" height="6.857142857142857" as="geometry" />
        </mxCell>
        <mxCell id="IR68_CzAtFla6GQySJcf-114" value="" style="rounded=0;whiteSpace=wrap;html=1;fontSize=22;" parent="1" vertex="1">
          <mxGeometry x="861.9161538461537" y="635.1657142857142" width="5.384615384615384" height="10.285714285714285" as="geometry" />
        </mxCell>
        <mxCell id="IR68_CzAtFla6GQySJcf-115" value="" style="rounded=0;whiteSpace=wrap;html=1;fontSize=22;" parent="1" vertex="1">
          <mxGeometry x="861.9161538461537" y="642.0228571428571" width="5.384615384615384" height="6.857142857142857" as="geometry" />
        </mxCell>
        <mxCell id="IR68_CzAtFla6GQySJcf-116" value="" style="ellipse;whiteSpace=wrap;html=1;aspect=fixed;fontSize=11;" parent="1" vertex="1">
          <mxGeometry x="849.9969230769229" y="666.0228571428571" width="4.615384615384615" height="4.615384615384615" as="geometry" />
        </mxCell>
        <mxCell id="IR68_CzAtFla6GQySJcf-117" value="" style="ellipse;whiteSpace=wrap;html=1;aspect=fixed;fontSize=11;" parent="1" vertex="1">
          <mxGeometry x="861.9161538461537" y="666.0228571428571" width="4.615384615384615" height="4.615384615384615" as="geometry" />
        </mxCell>
        <mxCell id="IR68_CzAtFla6GQySJcf-118" value="" style="endArrow=classic;html=1;rounded=0;fontSize=11;exitX=0.5;exitY=0;exitDx=0;exitDy=0;entryX=0.5;entryY=1;entryDx=0;entryDy=0;" parent="1" source="IR68_CzAtFla6GQySJcf-116" target="IR68_CzAtFla6GQySJcf-111" edge="1">
          <mxGeometry width="50" height="50" relative="1" as="geometry">
            <mxPoint x="518.8430769230768" y="391.73714285714277" as="sourcePoint" />
            <mxPoint x="545.7661538461537" y="357.45142857142855" as="targetPoint" />
          </mxGeometry>
        </mxCell>
        <mxCell id="IR68_CzAtFla6GQySJcf-119" value="" style="endArrow=classic;html=1;rounded=0;fontSize=11;exitX=0.5;exitY=0;exitDx=0;exitDy=0;entryX=0.5;entryY=1;entryDx=0;entryDy=0;" parent="1" source="IR68_CzAtFla6GQySJcf-117" target="IR68_CzAtFla6GQySJcf-115" edge="1">
          <mxGeometry width="50" height="50" relative="1" as="geometry">
            <mxPoint x="549.5115384615383" y="453.4514285714285" as="sourcePoint" />
            <mxPoint x="549.5115384615383" y="436.3085714285714" as="targetPoint" />
          </mxGeometry>
        </mxCell>
        <mxCell id="IR68_CzAtFla6GQySJcf-120" value="&lt;font style=&quot;font-size: 9px;&quot; face=&quot;Georgia&quot;&gt;&lt;i&gt;Item &lt;sub&gt;s2&lt;/sub&gt;&lt;/i&gt;&lt;/font&gt;" style="text;html=1;align=center;verticalAlign=middle;whiteSpace=wrap;rounded=0;fontSize=11;" parent="1" vertex="1">
          <mxGeometry x="826.6099999999999" y="666.02" width="60" height="20.57" as="geometry" />
        </mxCell>
        <mxCell id="eDhHdD21VxhMocc9II1k-332" value="&lt;b style=&quot;border-color: var(--border-color);&quot;&gt;&lt;font style=&quot;border-color: var(--border-color); font-size: 13px;&quot; color=&quot;#1a1a1a&quot;&gt;对比向量Attention模块&lt;/font&gt;&lt;/b&gt;" style="rounded=1;whiteSpace=wrap;html=1;fontColor=#000000;" parent="1" vertex="1">
          <mxGeometry x="613.92" y="483.09" width="164" height="38.56" as="geometry" />
        </mxCell>
        <mxCell id="IR68_CzAtFla6GQySJcf-245" value="" style="shape=curlyBracket;whiteSpace=wrap;html=1;rounded=1;flipH=1;fontSize=22;rotation=-90;size=0.5;" parent="1" vertex="1">
          <mxGeometry x="674.6892307692308" y="597.4514285714286" width="10.769230769230768" height="34.285714285714285" as="geometry" />
        </mxCell>
        <mxCell id="IR68_CzAtFla6GQySJcf-246" value="&lt;font style=&quot;font-size: 11px;&quot;&gt;concat&lt;/font&gt;" style="rounded=1;whiteSpace=wrap;html=1;fontSize=11;" parent="1" vertex="1">
          <mxGeometry x="660.7523076923077" y="596.8799999999999" width="38.65" height="10.43" as="geometry" />
        </mxCell>
        <mxCell id="eDhHdD21VxhMocc9II1k-328" style="edgeStyle=none;rounded=0;orthogonalLoop=1;jettySize=auto;html=1;exitX=0.5;exitY=0;exitDx=0;exitDy=0;fontFamily=Georgia;fontSize=10;" parent="1" edge="1">
          <mxGeometry relative="1" as="geometry">
            <mxPoint x="680.0299999999999" y="570.0300000000002" as="targetPoint" />
            <mxPoint x="679.8" y="596.2" as="sourcePoint" />
          </mxGeometry>
        </mxCell>
        <mxCell id="eDhHdD21VxhMocc9II1k-339" style="edgeStyle=orthogonalEdgeStyle;rounded=0;orthogonalLoop=1;jettySize=auto;html=1;exitX=0.75;exitY=0;exitDx=0;exitDy=0;entryX=0.289;entryY=1.014;entryDx=0;entryDy=0;entryPerimeter=0;jumpStyle=arc;" parent="1" source="eDhHdD21VxhMocc9II1k-335" target="eDhHdD21VxhMocc9II1k-336" edge="1">
          <mxGeometry relative="1" as="geometry" />
        </mxCell>
        <mxCell id="eDhHdD21VxhMocc9II1k-336" value="&lt;b style=&quot;border-color: var(--border-color);&quot;&gt;&lt;font style=&quot;border-color: var(--border-color); font-size: 13px;&quot; color=&quot;#1a1a1a&quot;&gt;对比向量Attention模块&lt;/font&gt;&lt;/b&gt;" style="rounded=1;whiteSpace=wrap;html=1;fontColor=#000000;" parent="1" vertex="1">
          <mxGeometry x="879.08" y="483.09" width="164" height="38.56" as="geometry" />
        </mxCell>
        <mxCell id="eDhHdD21VxhMocc9II1k-340" style="edgeStyle=orthogonalEdgeStyle;rounded=0;orthogonalLoop=1;jettySize=auto;html=1;entryX=0.75;entryY=1;entryDx=0;entryDy=0;jumpStyle=arc;" parent="1" target="eDhHdD21VxhMocc9II1k-336" edge="1">
          <mxGeometry relative="1" as="geometry">
            <mxPoint x="1002" y="540" as="sourcePoint" />
            <mxPoint x="936" y="531" as="targetPoint" />
          </mxGeometry>
        </mxCell>
        <mxCell id="eDhHdD21VxhMocc9II1k-341" value="&lt;b&gt;Qurey&lt;/b&gt;" style="text;html=1;align=center;verticalAlign=middle;whiteSpace=wrap;rounded=0;" parent="1" vertex="1">
          <mxGeometry x="1049.9999999999998" y="515.59" width="81.31" height="30" as="geometry" />
        </mxCell>
        <mxCell id="eDhHdD21VxhMocc9II1k-343" value="&lt;b&gt;Key / Value&lt;/b&gt;" style="text;html=1;align=center;verticalAlign=middle;whiteSpace=wrap;rounded=0;" parent="1" vertex="1">
          <mxGeometry x="613.9200000000001" y="530.83" width="81.31" height="30" as="geometry" />
        </mxCell>
        <mxCell id="eDhHdD21VxhMocc9II1k-344" value="&lt;b&gt;Key / Value&lt;/b&gt;" style="text;html=1;align=center;verticalAlign=middle;whiteSpace=wrap;rounded=0;" parent="1" vertex="1">
          <mxGeometry x="886.61" y="535.5899999999999" width="81.31" height="30" as="geometry" />
        </mxCell>
        <mxCell id="eDhHdD21VxhMocc9II1k-361" value="" style="group;fontStyle=1" parent="1" vertex="1" connectable="0">
          <mxGeometry x="680" y="440" width="80" height="10" as="geometry" />
        </mxCell>
        <mxCell id="eDhHdD21VxhMocc9II1k-362" value="" style="group;fontStyle=1" parent="eDhHdD21VxhMocc9II1k-361" vertex="1" connectable="0">
          <mxGeometry width="40" height="10" as="geometry" />
        </mxCell>
        <mxCell id="eDhHdD21VxhMocc9II1k-363" value="" style="rounded=0;whiteSpace=wrap;html=1;fontSize=22;fontStyle=1" parent="eDhHdD21VxhMocc9II1k-362" vertex="1">
          <mxGeometry width="10" height="10" as="geometry" />
        </mxCell>
        <mxCell id="eDhHdD21VxhMocc9II1k-364" style="edgeStyle=none;rounded=0;orthogonalLoop=1;jettySize=auto;html=1;exitX=1;exitY=1;exitDx=0;exitDy=0;fontSize=22;fontStyle=1" parent="eDhHdD21VxhMocc9II1k-362" source="eDhHdD21VxhMocc9II1k-363" target="eDhHdD21VxhMocc9II1k-363" edge="1">
          <mxGeometry relative="1" as="geometry" />
        </mxCell>
        <mxCell id="eDhHdD21VxhMocc9II1k-365" value="" style="rounded=0;whiteSpace=wrap;html=1;fontSize=22;fontStyle=1" parent="eDhHdD21VxhMocc9II1k-362" vertex="1">
          <mxGeometry x="10" width="10" height="10" as="geometry" />
        </mxCell>
        <mxCell id="eDhHdD21VxhMocc9II1k-366" value="" style="rounded=0;whiteSpace=wrap;html=1;fontSize=22;fontStyle=1" parent="eDhHdD21VxhMocc9II1k-362" vertex="1">
          <mxGeometry x="20" width="10" height="10" as="geometry" />
        </mxCell>
        <mxCell id="eDhHdD21VxhMocc9II1k-367" value="" style="rounded=0;whiteSpace=wrap;html=1;fontSize=22;fontStyle=1" parent="eDhHdD21VxhMocc9II1k-362" vertex="1">
          <mxGeometry x="30" width="10" height="10" as="geometry" />
        </mxCell>
        <mxCell id="eDhHdD21VxhMocc9II1k-368" value="" style="group;fontStyle=1" parent="eDhHdD21VxhMocc9II1k-361" vertex="1" connectable="0">
          <mxGeometry x="40" width="40" height="10" as="geometry" />
        </mxCell>
        <mxCell id="eDhHdD21VxhMocc9II1k-369" value="" style="rounded=0;whiteSpace=wrap;html=1;fontSize=22;fontStyle=1" parent="eDhHdD21VxhMocc9II1k-368" vertex="1">
          <mxGeometry width="10" height="10" as="geometry" />
        </mxCell>
        <mxCell id="eDhHdD21VxhMocc9II1k-370" style="edgeStyle=none;rounded=0;orthogonalLoop=1;jettySize=auto;html=1;exitX=1;exitY=1;exitDx=0;exitDy=0;fontSize=22;fontStyle=1" parent="eDhHdD21VxhMocc9II1k-368" source="eDhHdD21VxhMocc9II1k-369" target="eDhHdD21VxhMocc9II1k-369" edge="1">
          <mxGeometry relative="1" as="geometry" />
        </mxCell>
        <mxCell id="eDhHdD21VxhMocc9II1k-371" value="" style="rounded=0;whiteSpace=wrap;html=1;fontSize=22;fontStyle=1" parent="eDhHdD21VxhMocc9II1k-368" vertex="1">
          <mxGeometry x="10" width="10" height="10" as="geometry" />
        </mxCell>
        <mxCell id="eDhHdD21VxhMocc9II1k-372" value="" style="rounded=0;whiteSpace=wrap;html=1;fontSize=22;fontStyle=1" parent="eDhHdD21VxhMocc9II1k-368" vertex="1">
          <mxGeometry x="20" width="10" height="10" as="geometry" />
        </mxCell>
        <mxCell id="eDhHdD21VxhMocc9II1k-373" value="" style="rounded=0;whiteSpace=wrap;html=1;fontSize=22;fontStyle=1" parent="eDhHdD21VxhMocc9II1k-368" vertex="1">
          <mxGeometry x="30" width="10" height="10" as="geometry" />
        </mxCell>
        <mxCell id="eDhHdD21VxhMocc9II1k-375" style="edgeStyle=orthogonalEdgeStyle;rounded=0;orthogonalLoop=1;jettySize=auto;html=1;exitX=0.647;exitY=-0.008;exitDx=0;exitDy=0;exitPerimeter=0;" parent="1" source="eDhHdD21VxhMocc9II1k-332" edge="1">
          <mxGeometry relative="1" as="geometry">
            <mxPoint x="720" y="450" as="targetPoint" />
            <mxPoint x="720" y="480" as="sourcePoint" />
            <Array as="points" />
          </mxGeometry>
        </mxCell>
        <mxCell id="eDhHdD21VxhMocc9II1k-376" style="edgeStyle=orthogonalEdgeStyle;rounded=0;orthogonalLoop=1;jettySize=auto;html=1;exitX=0.341;exitY=-0.012;exitDx=0;exitDy=0;exitPerimeter=0;" parent="1" source="eDhHdD21VxhMocc9II1k-332" edge="1">
          <mxGeometry relative="1" as="geometry">
            <mxPoint x="669.87" y="420.2" as="targetPoint" />
            <mxPoint x="670" y="480" as="sourcePoint" />
            <Array as="points">
              <mxPoint x="670" y="450" />
              <mxPoint x="670" y="450" />
            </Array>
          </mxGeometry>
        </mxCell>
        <mxCell id="eDhHdD21VxhMocc9II1k-377" value="&lt;i&gt;&lt;font face=&quot;Times New Roman&quot;&gt;Neg-nclk&lt;/font&gt;&lt;/i&gt;" style="text;html=1;align=center;verticalAlign=middle;whiteSpace=wrap;rounded=0;" parent="1" vertex="1">
          <mxGeometry x="630.0000000000001" y="380" width="81.31" height="30" as="geometry" />
        </mxCell>
        <mxCell id="eDhHdD21VxhMocc9II1k-378" value="&lt;i&gt;&lt;font face=&quot;Times New Roman&quot;&gt;Pos-nclk&lt;/font&gt;&lt;/i&gt;" style="text;html=1;align=center;verticalAlign=middle;whiteSpace=wrap;rounded=0;" parent="1" vertex="1">
          <mxGeometry x="711.3100000000002" y="447.84000000000003" width="81.31" height="30" as="geometry" />
        </mxCell>
        <mxCell id="eDhHdD21VxhMocc9II1k-390" value="" style="group" parent="1" vertex="1" connectable="0">
          <mxGeometry x="939.9999999999999" y="410" width="80.00000000000004" height="10.000000000000007" as="geometry" />
        </mxCell>
        <mxCell id="eDhHdD21VxhMocc9II1k-391" value="" style="group" parent="eDhHdD21VxhMocc9II1k-390" vertex="1" connectable="0">
          <mxGeometry y="7.105427357601002e-15" width="40" height="10" as="geometry" />
        </mxCell>
        <mxCell id="eDhHdD21VxhMocc9II1k-392" value="" style="rounded=0;whiteSpace=wrap;html=1;fontSize=22;" parent="eDhHdD21VxhMocc9II1k-391" vertex="1">
          <mxGeometry width="10" height="10" as="geometry" />
        </mxCell>
        <mxCell id="eDhHdD21VxhMocc9II1k-393" style="edgeStyle=none;rounded=0;orthogonalLoop=1;jettySize=auto;html=1;exitX=1;exitY=1;exitDx=0;exitDy=0;fontSize=22;" parent="eDhHdD21VxhMocc9II1k-391" source="eDhHdD21VxhMocc9II1k-392" target="eDhHdD21VxhMocc9II1k-392" edge="1">
          <mxGeometry relative="1" as="geometry" />
        </mxCell>
        <mxCell id="eDhHdD21VxhMocc9II1k-394" value="" style="rounded=0;whiteSpace=wrap;html=1;fontSize=22;" parent="eDhHdD21VxhMocc9II1k-391" vertex="1">
          <mxGeometry x="10" width="10" height="10" as="geometry" />
        </mxCell>
        <mxCell id="eDhHdD21VxhMocc9II1k-395" value="" style="rounded=0;whiteSpace=wrap;html=1;fontSize=22;" parent="eDhHdD21VxhMocc9II1k-391" vertex="1">
          <mxGeometry x="20" width="10" height="10" as="geometry" />
        </mxCell>
        <mxCell id="eDhHdD21VxhMocc9II1k-396" value="" style="rounded=0;whiteSpace=wrap;html=1;fontSize=22;" parent="eDhHdD21VxhMocc9II1k-391" vertex="1">
          <mxGeometry x="30" width="10" height="10" as="geometry" />
        </mxCell>
        <mxCell id="eDhHdD21VxhMocc9II1k-397" value="" style="rounded=0;whiteSpace=wrap;html=1;fontSize=22;" parent="eDhHdD21VxhMocc9II1k-390" vertex="1">
          <mxGeometry x="40.00000000000004" width="10" height="10" as="geometry" />
        </mxCell>
        <mxCell id="eDhHdD21VxhMocc9II1k-398" value="" style="rounded=0;whiteSpace=wrap;html=1;fontSize=22;" parent="eDhHdD21VxhMocc9II1k-390" vertex="1">
          <mxGeometry x="50.00000000000004" width="10" height="10" as="geometry" />
        </mxCell>
        <mxCell id="eDhHdD21VxhMocc9II1k-399" value="" style="rounded=0;whiteSpace=wrap;html=1;fontSize=22;" parent="eDhHdD21VxhMocc9II1k-390" vertex="1">
          <mxGeometry x="60.00000000000004" width="10" height="10" as="geometry" />
        </mxCell>
        <mxCell id="eDhHdD21VxhMocc9II1k-400" value="" style="rounded=0;whiteSpace=wrap;html=1;fontSize=22;" parent="eDhHdD21VxhMocc9II1k-390" vertex="1">
          <mxGeometry x="70.00000000000004" width="10" height="10" as="geometry" />
        </mxCell>
        <mxCell id="eDhHdD21VxhMocc9II1k-401" style="edgeStyle=orthogonalEdgeStyle;rounded=0;orthogonalLoop=1;jettySize=auto;html=1;exitX=0.647;exitY=-0.008;exitDx=0;exitDy=0;exitPerimeter=0;" parent="1" edge="1">
          <mxGeometry relative="1" as="geometry">
            <mxPoint x="929.78" y="450.09" as="targetPoint" />
            <mxPoint x="929.78" y="483.09" as="sourcePoint" />
            <Array as="points" />
          </mxGeometry>
        </mxCell>
        <mxCell id="eDhHdD21VxhMocc9II1k-402" style="edgeStyle=orthogonalEdgeStyle;rounded=0;orthogonalLoop=1;jettySize=auto;html=1;exitX=0.341;exitY=-0.012;exitDx=0;exitDy=0;exitPerimeter=0;" parent="1" edge="1">
          <mxGeometry relative="1" as="geometry">
            <mxPoint x="979.87" y="420.28999999999996" as="targetPoint" />
            <mxPoint x="980" y="483.09" as="sourcePoint" />
            <Array as="points">
              <mxPoint x="980" y="450.09" />
              <mxPoint x="980" y="450.09" />
            </Array>
          </mxGeometry>
        </mxCell>
        <mxCell id="eDhHdD21VxhMocc9II1k-403" value="&lt;i&gt;&lt;font face=&quot;Times New Roman&quot;&gt;Neg-clk&lt;/font&gt;&lt;/i&gt;" style="text;html=1;align=center;verticalAlign=middle;whiteSpace=wrap;rounded=0;" parent="1" vertex="1">
          <mxGeometry x="941.1700000000001" y="380" width="81.31" height="30" as="geometry" />
        </mxCell>
        <mxCell id="eDhHdD21VxhMocc9II1k-404" value="&lt;i&gt;&lt;font face=&quot;Times New Roman&quot;&gt;Pos-clk&lt;/font&gt;&lt;/i&gt;" style="text;html=1;align=center;verticalAlign=middle;whiteSpace=wrap;rounded=0;" parent="1" vertex="1">
          <mxGeometry x="866.5300000000001" y="450" width="81.31" height="30" as="geometry" />
        </mxCell>
        <mxCell id="eDhHdD21VxhMocc9II1k-405" value="&lt;b&gt;对比学习&lt;br&gt;Loss&lt;/b&gt;" style="ellipse;whiteSpace=wrap;html=1;" parent="1" vertex="1">
          <mxGeometry x="790" y="397.22" width="80" height="35.56" as="geometry" />
        </mxCell>
        <mxCell id="eDhHdD21VxhMocc9II1k-407" style="rounded=0;orthogonalLoop=1;jettySize=auto;html=1;exitX=1;exitY=0.5;exitDx=0;exitDy=0;entryX=0;entryY=1;entryDx=0;entryDy=0;" parent="1" source="eDhHdD21VxhMocc9II1k-373" target="eDhHdD21VxhMocc9II1k-405" edge="1">
          <mxGeometry relative="1" as="geometry" />
        </mxCell>
        <mxCell id="eDhHdD21VxhMocc9II1k-409" style="edgeStyle=orthogonalEdgeStyle;rounded=0;orthogonalLoop=1;jettySize=auto;html=1;exitX=1;exitY=0.5;exitDx=0;exitDy=0;entryX=0;entryY=0.5;entryDx=0;entryDy=0;" parent="1" source="IR68_CzAtFla6GQySJcf-21" target="eDhHdD21VxhMocc9II1k-405" edge="1">
          <mxGeometry relative="1" as="geometry" />
        </mxCell>
        <mxCell id="eDhHdD21VxhMocc9II1k-410" style="edgeStyle=orthogonalEdgeStyle;rounded=0;orthogonalLoop=1;jettySize=auto;html=1;exitX=0;exitY=0.5;exitDx=0;exitDy=0;entryX=1;entryY=0.5;entryDx=0;entryDy=0;" parent="1" source="eDhHdD21VxhMocc9II1k-392" target="eDhHdD21VxhMocc9II1k-405" edge="1">
          <mxGeometry relative="1" as="geometry" />
        </mxCell>
        <mxCell id="eDhHdD21VxhMocc9II1k-411" style="rounded=0;orthogonalLoop=1;jettySize=auto;html=1;exitX=0;exitY=0.5;exitDx=0;exitDy=0;entryX=1;entryY=1;entryDx=0;entryDy=0;" parent="1" source="IR68_CzAtFla6GQySJcf-94" target="eDhHdD21VxhMocc9II1k-405" edge="1">
          <mxGeometry relative="1" as="geometry" />
        </mxCell>
        <mxCell id="eDhHdD21VxhMocc9II1k-412" style="edgeStyle=orthogonalEdgeStyle;rounded=0;orthogonalLoop=1;jettySize=auto;html=1;exitX=0;exitY=0;exitDx=0;exitDy=0;jumpStyle=arc;" parent="1" source="eDhHdD21VxhMocc9II1k-369" edge="1">
          <mxGeometry relative="1" as="geometry">
            <mxPoint x="720" y="320" as="targetPoint" />
            <Array as="points">
              <mxPoint x="720" y="320" />
            </Array>
          </mxGeometry>
        </mxCell>
        <mxCell id="eDhHdD21VxhMocc9II1k-413" style="edgeStyle=orthogonalEdgeStyle;rounded=0;orthogonalLoop=1;jettySize=auto;html=1;exitX=0;exitY=0;exitDx=0;exitDy=0;jumpStyle=arc;" parent="1" source="eDhHdD21VxhMocc9II1k-1" edge="1">
          <mxGeometry relative="1" as="geometry">
            <mxPoint x="930" y="320" as="targetPoint" />
            <Array as="points">
              <mxPoint x="930" y="320" />
            </Array>
          </mxGeometry>
        </mxCell>
        <mxCell id="eDhHdD21VxhMocc9II1k-414" value="&lt;font style=&quot;font-size: 18px;&quot; face=&quot;Times New Roman&quot;&gt;&lt;i style=&quot;&quot;&gt;Loss&lt;sub style=&quot;&quot;&gt;con&lt;/sub&gt;&lt;/i&gt;&lt;/font&gt;" style="text;html=1;align=center;verticalAlign=middle;whiteSpace=wrap;rounded=0;fontColor=#000000;" parent="1" vertex="1">
          <mxGeometry x="801.2500000000001" y="365.56" width="57.5" height="30" as="geometry" />
        </mxCell>
        <mxCell id="eDhHdD21VxhMocc9II1k-415" value="&lt;i style=&quot;border-color: var(--border-color); font-family: &amp;quot;Times New Roman&amp;quot;; font-size: 18px;&quot;&gt;Loss =&amp;nbsp;&lt;i style=&quot;border-color: var(--border-color);&quot;&gt;&lt;i style=&quot;border-color: var(--border-color);&quot;&gt;Loss&lt;sub style=&quot;border-color: var(--border-color);&quot;&gt;ctr +&lt;/sub&gt;&lt;/i&gt;&lt;/i&gt;&amp;nbsp;&lt;i style=&quot;border-color: var(--border-color);&quot;&gt;Loss&lt;sub style=&quot;border-color: var(--border-color);&quot;&gt;ctr +&amp;nbsp;&lt;/sub&gt;&lt;/i&gt;&lt;/i&gt;&lt;font style=&quot;font-size: 18px;&quot; face=&quot;Times New Roman&quot;&gt;&lt;i style=&quot;&quot;&gt;Loss&lt;sub style=&quot;&quot;&gt;con&lt;/sub&gt;&lt;/i&gt;&lt;/font&gt;" style="text;html=1;align=center;verticalAlign=middle;whiteSpace=wrap;rounded=0;" parent="1" vertex="1">
          <mxGeometry x="460" y="190" width="310" height="30" as="geometry" />
        </mxCell>
      </root>
    </mxGraphModel>
  </diagram>
</mxfile>
